<svg xmlns="http://www.w3.org/2000/svg" id="optic" viewBox="0 0 515.9 120"><defs><style>.cls-1{opacity:0.85;fill:white}.cls-2{opacity:0.7;fill:white}</style></defs><path id="O" d="M156.2 0a195.3 195.3 0 0 1-2.8 28 105.7 105.7 0 0 1-5.7 20.2C135.3 79.4 108.3 92 59.7 92h-6.2a47 47 0 0 1 6.7-20.2h3.4c34.2 0 51-11.2 59-23.6a47 47 0 0 0 7.4-20 62.3 62.3 0 0 0 .5-8h-38C29.5 20 26 58.5 26 71.6h8A106.7 106.7 0 0 0 29.2 92H0C2.5 24.7 28 0 96.6 0z" class="cls-1"/><g id="G" class="cls-2"><path d="M153.3 28a105.7 105.7 0 0 1-5.6 20.2h36v-20z"/><path d="M157.8 100H53a73.2 73.2 0 0 1 .5-8 47 47 0 0 1 6.7-20.3c7.8-12.3 24-23.5 58.2-23.5h4.3a47 47 0 0 0 7.3-20h-11.6c-45.7 0-73 10.7-84.4 43.6a106.7 106.7 0 0 0-4.8 20 197.3 197.3 0 0 0-1.8 28.2h156.2V67.7h-25.8z"/></g><path d="M238.3 14H259v3q0 33.4-28.8 33.4h-20.8v-3q0-33.3 29-33.3zm-3.5 7.3q-17.3 1.5-17.3 21.8h16.2Q251 42 251 22zm29-7.3h49.7q0 22-22 22h-15v-7.4H294q8 0 10.4-7.3H272v29h-8.2zm83.2 7.3v29h-8v-29h-21V14h50v7.3zm25.5-7.3h8v36.4h-8zm38.2 7.3q-17.4 1.5-17.4 21.8H435v8h-49.8v-3q0-33 29-33H435v7zM264 106h-54.6v-3q0-33.4 31.7-33.4h23v7.2h-26q-19 1.5-19 21.8h36V84.2h9zm13.8-7.3v7.3h-9v-3q0-33.4 31.8-33.4h22.8V106h-9v-7.3zm36.7-7.3V77h-17.7q-15.3 1-18.3 14.4zm47-14.4h-24v29h-9V69.5h30.3q24 0 24 21.8V106H374V91.3Q374 77 361.4 77zm-1.4 5.7V106h-8V82.6zm28-13h9V106h-9zm23 7.3v29h-9V69.5h12q25.6 0 34.5 16v-16h8.7V106h-9q-4-26.2-34.2-29zm105 29h-54v-3q0-33.4 32-33.4h23v7.2h-27q-19 1.5-19 21.8h36V84.2h9z" class="cls-1"/></svg>