<svg xmlns="http://www.w3.org/2000/svg" viewBox="0 0 553.1 120"><defs><style>.cls-1{opacity:0.85;fill:white}</style></defs><rect width="13.3" height="60" x="132.3" y="40" class="cls-1" rx="2.2" ry="2.2"/><rect width="13.3" height="13.3" x="132.3" y="20" class="cls-1" rx="2.2" ry="2.2"/><path d="M204.5 23.6a26.5 26.5 0 0 0-13.3-3.6h-40a2.2 2.2 0 0 0-2.2 2.2v9a2.2 2.2 0 0 0 2.2 2h40a13.3 13.3 0 0 1 13.4 13.5v51a2.2 2.2 0 0 0 2.2 2.3h9a2.2 2.2 0 0 0 2-2.3v-51a26.7 26.7 0 0 0-13.3-23.2z" class="cls-1"/><rect width="53.3" height="13.3" x="224.5" y="20" class="cls-1" rx="2.2" ry="2.2"/><path d="M271.2 46.7h-44.4a2.2 2.2 0 0 0-2.3 2.2v48a2.2 2.2 0 0 0 2.3 2h9a2.2 2.2 0 0 0 2-3V60h33.4a2.2 2.2 0 0 0 2.2-2.2v-9a2.2 2.2 0 0 0-2.2-2zm73-26.7h-9a2.2 2.2 0 0 0-2 2.2v48a17.6 17.6 0 0 1-35.3 0v-48a2.2 2.2 0 0 0-3-2.2h-9a2.2 2.2 0 0 0-2 2.2v48a31 31 0 1 0 61 0v-48a2.2 2.2 0 0 0-2-2.2z" class="cls-1"/><rect width="66.7" height="13.3" x="353.1" y="20" class="cls-1" rx="2.2" ry="2.2"/><path d="M393 46.7h-37.7A2.2 2.2 0 0 0 353 49v8.7a2.2 2.2 0 0 0 2.3 2.2h38a13.3 13.3 0 0 1 13.2 13A13.5 13.5 0 0 1 393 86h-37.7a2.2 2.2 0 0 0-2.3 3v8.8a2.2 2.2 0 0 0 2.3 2.2h38a26.7 26.7 0 1 0 0-53.4z" class="cls-1"/><rect width="66.7" height="13.3" x="426.5" y="20" class="cls-1" rx="2.2" ry="2.2"/><path d="M491 46.7h-38a26.7 26.7 0 1 0 0 53.3h38a2.2 2.2 0 0 0 2-2.2v-9a2.2 2.2 0 0 0-2-2h-37.6A13.3 13.3 0 1 1 453 60h38a2.2 2.2 0 0 0 2.2-2.2v-9a2.2 2.2 0 0 0-2.2-2zm52-13.4A40 40 0 0 0 513 20h-11a2.2 2.2 0 0 0-2.2 2.2v9a2.2 2.2 0 0 0 2.2 2h11a26.7 26.7 0 1 1 0 53.5h-11a2.2 2.2 0 0 0-2.2 2.2v8a2.2 2.2 0 0 0 2.2 2h11a40 40 0 0 0 30-66zM4.8 52.6V54q-.2 3 0 5.7v3.7c0 .7.2 1.4.3 2a1.4 1.4 0 0 0 1 .8 1 1 0 0 0 2 0 1.3 1.3 0 0 0 1-1c0-2 .7-4.3 1-6.5a82.8 82.8 0 0 1 2-10.3.6.6 0 0 1 .6-.4 7.8 7.8 0 0 1 5.7 1 11.7 11.7 0 0 1 3.3 2.6 19.5 19.5 0 0 1 3 5 30 30 0 0 1 2 7.2 35 35 0 0 1 .2 5.7 33.4 33.4 0 0 1-2 11 23.3 23.3 0 0 1-2 3.5v.3a7 7 0 0 0-3-.7 6.3 6.3 0 0 0-4.2.7 4.2 4.2 0 0 0-1.2 1.2 3 3 0 0 0 .4 3.7l1 1 .8.2a5.3 5.3 0 0 1-1 .4 7.7 7.7 0 0 1-5-.8 12 12 0 0 1-4-3.2A20.7 20.7 0 0 1 2 81a31 31 0 0 1-1.7-6.8A35.2 35.2 0 0 1 0 68a31.6 31.6 0 0 1 2.7-11.8 20 20 0 0 1 2-3.4v-.3z" class="cls-1"/><path d="M101.5 34.3l-.2-.4a58.2 58.2 0 0 0-10.7-14A49.5 49.5 0 0 0 74 10a44.4 44.4 0 0 0-8.6-2 43.4 43.4 0 0 0-8.8-.6 45.3 45.3 0 0 0-22 7 53.3 53.3 0 0 0-14.3 13 63.6 63.6 0 0 0-9.7 18.2l-1 3a73.3 73.3 0 0 0-2 7.8l-1 6v.6a.8.8 0 0 1 0 .3.4.4 0 0 1-.7 0 .8.8 0 0 1-1-.3v-1.3a55.5 55.5 0 0 1 0-7.4L6 49l1.5-7a63.6 63.6 0 0 1 9-20.4A53.5 53.5 0 0 1 30.5 8a46 46 0 0 1 14-6.6 43 43 0 0 1 6.5-1 42 42 0 0 1 5.6-.4 43.3 43.3 0 0 1 16.6 3.6 48.3 48.3 0 0 1 13.8 9 57 57 0 0 1 12.5 17l2 4.3zM48.2 70l-12.4-6 .2-.3 1-.6a.5.5 0 0 1 .6 0l7.2 4c6.2 3 12.7 6 19.2 8 1.7 1 3.3 1 5 2a3.2 3.2 0 0 0 3.8-1h.2l.2.7a8 8 0 0 1-.2 5 11 11 0 0 1-3.4 4.5 16.7 16.7 0 0 1-6.3 3 19.7 19.7 0 0 1-5.7.5 17.7 17.7 0 0 1-8.6-3 11.4 11.4 0 0 1-3.8-4 8.2 8.2 0 0 1-1.4-5 8.7 8.7 0 0 1 1.4-4 12 12 0 0 1 2.8-2z" class="cls-1"/><path d="M106.5 59.3V63l-.2 3.3-.6 4.5a66.3 66.3 0 0 1-2 9 63.6 63.6 0 0 1-9.8 20 52 52 0 0 1-16 14 44.4 44.4 0 0 1-13 5 35.7 35.7 0 0 1-5 1l-3 .2a43 43 0 0 1-5.3 0 39.3 39.3 0 0 1-5-.6A46.2 46.2 0 0 1 26 108a53.4 53.4 0 0 1-7.3-8.3C18 99 17.4 98 17 97a36.6 36.6 0 0 1-2-3.6l-.3-.3a1 1 0 0 1 1 0 .4.4 0 0 1 .3 0 5.2 5.2 0 0 1 .4 1 40.8 40.8 0 0 0 2.6 3 57.6 57.6 0 0 0 10.6 11 46.6 46.6 0 0 0 14 8 43.6 43.6 0 0 0 6.8 1.6 40.8 40.8 0 0 0 8 .4c1.2 0 2.4 0 3.5-.6s2-.2 3-.4a45 45 0 0 0 16-7 53.2 53.2 0 0 0 12-12 62.3 62.3 0 0 0 9-17 68.5 68.5 0 0 0 3-11v-9z" class="cls-1"/><path d="M47.2 104.8v-2l-.6-.2c-2.6-1-5.2-2-7.7-3.2-3-1.2-6-2.5-9-4a.6.6 0 0 0-1 0l-1 .6a.5.5 0 0 1-1 0l-6-3.5-4-2a16 16 0 0 1-2-1.5 3.2 3.2 0 0 1-.8 0 1.7 1.7 0 0 1 0-2 2.8 2.8 0 0 1 1-1 5.4 5.4 0 0 1 3 0 5.6 5.6 0 0 1 2.8 1l5.4 3 3 2a.4.4 0 0 1 0 .3v1a.5.5 0 0 0 0 .5l6.5 3c3.5 1.6 7 3 10.3 4.3a.5.5 0 0 0 .4 0l1-1a.5.5 0 0 1 .5 0l7 3 2 .8a1 1 0 0 1 .5 1 7.8 7.8 0 0 1 .3 1 9.6 9.6 0 0 1 0 4 4.8 4.8 0 0 1-.5 0 1.8 1.8 0 0 1-.5.4.5.5 0 0 1-.3 0l-3.5-1-8-3zm29.5-31.4l.2.3a3.6 3.6 0 0 0 2 1 2.4 2.4 0 0 0 1 0l9-5.4a118.5 118.5 0 0 0 10-7V62v1c-2 2-4 4-7 5v.8a7.8 7.8 0 0 1 .5 9.7 9.6 9.6 0 0 1-5.5 4 10.4 10.4 0 0 1-8-1 8.3 8.3 0 0 1-4-4.2 7.5 7.5 0 0 1-.5-3 1 1 0 0 1 0-.2zm25 14.6v-.3a59.7 59.7 0 0 0 4.6-13.7 66.4 66.4 0 0 0 1-7 68.3 68.3 0 0 0 .3-10c0-2-.3-4-.6-6l.3.3A18 18 0 0 1 110 56a29 29 0 0 1 1.8 6.5 34.7 34.7 0 0 1 .4 5.7 33 33 0 0 1-1.7 10.6 20.8 20.8 0 0 1-2.3 4.7 12.3 12.3 0 0 1-2.8 3 7.3 7.3 0 0 1-3 1.5h-1z" class="cls-1"/></svg>