<svg xmlns="http://www.w3.org/2000/svg" viewBox="0 0 763.9 120"><defs><style>.cls-1{opacity:0.85;fill:white}</style></defs><path id="esportsify" d="M109 14.5c16.2-.4 36.2 5.3 38.2 18-4 3.4-7.6 8-11 11.8-4.8-1.6-6.3-7.3-11-9.4-4.5-2-12-5-16.3-1-4 1-6 3-6 8 9 5 20 6 29 11 10 5 17 18 14 30a37.3 37.3 0 0 1-3 8c-7 9-22 13-33 12-8-1-13-3-19-7-5-4-11-7-11-13 4-4 6-10 12-11 4 5 20 19 30 11 4-2 5-4 5-11-6-3-10-6-17-8-5-1-10-2-14-4.7-9-4.6-15-17-12-27 2-8.4 9-14.3 17-17.7 2-1 5-.4 7-2zm398 0c16.4-.4 36.3 5.2 38.3 18-4 3.4-7.6 8-11 11.8-3.8-1.3-4.8-5.4-7.7-7.7-3.6-2.7-8.6-2.5-12.8-3.4-1.6-.3-4.8-.6-6.8 1-4 1-5.2 3-5 8.4 14 6.4 36.4 9.3 42.4 23.8l1 7.7a22.8 22.8 0 0 1-3.5 18c-7 10-22 13-33 13-8 0-13-3-19-7-5-3-11-6-11-13 4-3 5-10 13-11 2 6 19 19 29 11 4-1 5-4 5-10-5-2-8-5-13-7l-10-3c-7-1-13-4-16-10-10-15-3-31 13-38 2-1 5 0 7-2zM9.4 17h57a12.2 12.2 0 0 1 .8 4.3c-3 2.5-6 12.3-8.5 13.6H43.4C29.8 35 11.6 36 1 35a10.7 10.7 0 0 1-1-3.5zM170 17c20.3-.3 51-3.5 53.6 23.6.8 8.7-1.2 19.4-7.8 25.7-8.5 8-23 7-33.8 7-3.3 6.3-1.8 20.5-1.7 29.7-4.3 1.5-12 1-17.8.8V102c-3-4-1-15.7-1-20.6-.2-8.6-.7-17.5 1-26h1.7c3.8-2.7 12.6-1 17-1 7 0 14.3 0 21.2-1.6 2.3-4.6 3-9 1-14.4-9-5-27-3.5-41-3.4a12.2 12.2 0 0 1-.8-4.3c3.4-3.2 6.4-9.3 8.5-13.6zm175.4 86.8h-17c-3.2-9-1-35.8-1-47.6 8.6-3 24-1 34-.8 3.4-2.5 6.3-1.4 7.8-6 2.4-2.7 1.2-5.4.8-9.4-3-2-3-3.8-7.6-4.3-3.6-2.5-28.3-1-35-.8a12.2 12.2 0 0 1-.8-5c3.4-2 6.4-12 8.4-13h31.6c5.2 3 12 3 16.3 8 3 4 5 11 6 17s0 12-3 17-11 8-12 14c4 3 7 9 10 14 1 3 9 12 8 14-2 4-16 2-21 2-2-6-7-12-11-17a63 63 0 0 1-5-7c-2-2-2-6-5-7h-5v3c-3 3-1 22.3-1 28zM409.2 17h65.5c.5 1.7 0 .8.8 1.8-.3 1.4-8 16-8.5 16h-21.3c-1 1 0 .4-1.6 1v68h-17c-2-5.4-1-15-1-22V36.5c-5-2.7-16-1.8-24-1.7a12.2 12.2 0 0 1 0-4.3c4-3.2 7-9.3 9-13.6zM563 17h16.3c2.4 7 1 19 1 27.3V103c-4.5 1.5-12.3 1-18 .8V102c-2.5-3.4-.8-15-.8-20.3V37.5c0-7-.7-16 1.6-20.4zm44.4 0h57a12.2 12.2 0 0 1 .8 4.3c-3 2.4-6 12.3-8.5 13.6H599a10.7 10.7 0 0 1-1-4zm74 0H700c4 6.6 9 12.3 13.4 18.5 3 4.2 4.5 10.8 10.5 11.3L743 17h20a12.2 12.2 0 0 1 1 4.4c-7 5.2-12.7 19-18 26.4l-2.5 1.7c-2.3 3.3-4 7-6 10.3-1.4 2.6-5 5-6 7.6V103c-4.3 1.5-12 1-17.8.8-3-9-1-25-1-35.7-4-3-5.6-9-9-13-3.5-4-7-8-10-13a70 70 0 0 0-8-12c-2.8-3-5.7-7-4.3-11zM315.6 56.2l-1-10.2c-5.4-17.8-20-30.6-43.2-30.6L257 18.8c-29.3 12.5-35 64-6 79.8 15.5 8.5 31 10 46.4 0 13.4-8.8 22-26.3 18.2-42.4zm-35 30.6C267 91 255.4 81.2 252 68.4a31.4 31.4 0 0 1 .6-20 28.3 28.3 0 0 1 6.7-9.3c3-2 6.6-2 9.4-5 14.7 0 27 6 28.7 22 1.6 12-4.4 27-16.7 31zm-261-.8h46.7a4.4 4.4 0 0 0 1.7 1.7c-.5 1.6 0 .8-.8 1.7-.4 1.7-6.7 13.8-7.7 14.5H16.2c-3 2-11.5 0-14.5 0C.3 99 1 92 1 86V51h1.5c2.6-1.8 7.3-.8 10.3-.8 4 0 8 0 12-.2 7.5-.3 16.6-1.2 23.6 2-.5 1.6 0 .7-.8 1.7C47 56 40.6 68.3 39 69H20.5c-1.4 4-1 11.5-.8 17zm581-35.7h62c1 1.7 1.4 1.5 1.8 4.2L655 69h-36.6c-2.8 8.3-1 23.2-.8 33.2-.8 1-.3 0-1 1.7h-17c-1.3-5-.7-12-.7-17V51c1-.4 0 0 1-.7z" class="cls-1"/></svg>