<svg xmlns="http://www.w3.org/2000/svg" viewBox="0 0 682.16 120"><defs><style>.cls-1{opacity:0.85;fill:white}</style></defs><g id="battalion"><g id="_1944" data-name="1944" class="cls-1"><path id="_9" d="M671.5 40.8c-.62-1.48-1.4-1-.78-2.66a6.75 6.75 0 0 0 .78-3.34c-.1-4.77 0-9.55.05-14.34 0-4 0-8.1.1-12.13 0-.73.46-2.67-.08-3.24s-1.7-.2-2.5-1c0 1.3-1.12.8-2 .8q.42-1.3-.8-.9c.48-1.6 1.14-1.1 2.42-.9 0-3-.5-.9-2-.8-1 .1 0-.8-.7-1a13.65 13.65 0 0 0-2.7.1c0-1.6-5-.9-6.6-.9-3.2 0-6.3 0-9.5.2-2 .1-4.3-.2-5.7 1.4s-.6 4-.9 6c.7 0 .7 2.7 0 2.5-.5 2.5.3 5.1.4 7.6.1 2.7-.3 5.5-.4 8.3 1 0 1 3.1 2.4 2.5 0 1.6 13.7.8 15.7.8 0 2.9-.4 5.9 0 8.8.3 2.2.5 2.4-2.1 2.6-1.2.1-4.4.9-5.4.1-1.9-1.5 2.2-1.8 2.2-1.8l-.5-.1a5 5 0 0 0 .3-3.6c-.5-1.1-.5-.8-1.7-1.1a32.26 32.26 0 0 0-8.8 0c-2 .3-2.2.7-2.1 2.9.1 2.6-.1 5.4.2 8 .6 5.2 5.8 4.6 10 4.8 3.2.1 6.4 0 9.6 0 1.1 0 7.2.1 7-.4a6.4 6.4 0 0 0 2.7-.8s1-1.8.9-1.4c.6-2.2 0-5.3 0-7.6zM663 10.86c-1.15 0-2.5-.38-3.37.44s-.8 3.56-.77 4.6c0 .73-.1 3.3.42 3.85s2.44 0 2.5.8-8.14.43-8.5.43c0-2.1.1-4.28-.08-6.4-.13-1.4-.87-3.26.35-4.32s9.44-.73 9.44.6zm0-7.6V2c.9.27 1 .3 1.2 1.27z" data-name="9"/><path id="_1" d="M634 40c0-5.3-.2-10.6-.26-15.9 0-1.16.77-10.67-.5-10.67l.37-2.53c-.6 0-.6-1.1-.7-1.7.8 0 .3-2.28.4-2.72s.7-.88.7-1.38c0-.84-.5-.74-.6-1.53-.1-1.33 1.2-2-.2-3-.7-.47-2.7.1-3.6.13-2.9.06-5.9-1.16-7.3 1.8-1.5 3.2-3.8 8.1-3.8 11.7 2.4 0 3.7-.38 3.9 2.25.2 2.15-1 5.48-.1 7.46.2.5 2.1 1.9 2.2 2.2.2 2.1-1.4-.1-1.7 0-1.3.6-.4 9.2-.4 10.4 0 2.7-.1 5.4-.1 8 0 1.6-.4 4.5.7 5.9 1.6 1.9 5.3 0 6.7.2 0 1.5 3.9 0 4.6 0-.5-1.6 0-3.3.1-4.9.2-1.9 0-3.7 0-5.6z" data-name="1"/><path id="_44" d="M629 88c-1.84 0-1.8 6.4-3.45 7.66-.48.36-1.56.1-2 .57-.54.62-.1.36-.3 1.22-.08.37.2.94.1 1.37-.14.8-1 .82-1 1.82a8.68 8.68 0 0 0-3.3.42 5.1 5.1 0 0 0 .83.42c1 1.8 2.14 1 4.2.78 2.85-.36 5.9.66 8.68-.36-1.1-1.1-3-.42-4-1.42s-.54-3.8-.47-5c.1-2 0-2.16 1.8-2.53a32.77 32.77 0 0 1 4.1-.2c1.8-.12 5.6-.77 6.4 1.36.4 1.3-1.4 7.6-.1 8.1.3.1.9 0 1.2.1a11.18 11.18 0 0 0 1.5.7c2.3.4 1.7-1.3 2.2-3.2.8-2.7 2.4-5.9 3.2-8.8.2-.6.2-1.7.4-2.2s.8-.8 1.2-1.4c.8-1.5.6-3.3 1.3-4.8s1.1-1.1 1.5-2.9c.4-2.3 1.4-4.4 1.8-6.7-.1.4.5-.7.4-.4a29 29 0 0 1 1.8-2.8s.4-1 .3-.9c1-.7 4.3 0 5.5 0h7.3c-.1 2.1-1.3 3.8-1.3 5.9q-1.5-.4-.4.9c-1.1 0-2 3.6-1.7 4.3-.8 0-.5 1-.8 1.3-.4.6-.7.1-1 .8a24.65 24.65 0 0 0-1 4.7 7.7 7.7 0 0 1-.3 1.5c-.2.4-.8 0-1 .3-.3.6.2 3.2-.8 2.9a7.47 7.47 0 0 0-.4 2.6c-.5 0-1 1.7-.8 2.1h-.4c0 .2.3 1.9-.5 1.7v.8c-1.1-.3.2 2-.9 1.7a23 23 0 0 0-.4 2.6c2 0 6.8 1 8.3-.4a11.2 11.2 0 0 1-3.8-1.1c-.7-.7-.4-1.3-.4-2.3 0-2.5-1.2-5 1.8-5.4a52.83 52.83 0 0 1 6 0c1 0 3.2-.5 4.1.1s.9 1.7.9 2.8c-.1 2.5-.5 1.8-2 .9v1.3c1-.5 1.2.9 1.5 1.5.8 1.6 1.3 2 .1 3.1-.4.4-2.4.3-1.7 1.3.2.3 1.3-.3 1.5-.1.5.5.2 1.6.2 2.2 1.2-.3 1.6-2.4 2.3-2.3 2.6.6-3.1 3.1-3.1 3.1 1.2 1.5 2.5 4.2 2.5.8 2.6.5 2.2 1.4 2.5 3.8H678c.4-1.2-1.2-.3-1.5-.1-1 .7-1 2-1 3.1-.6 0-.6.4 0 .4-.1 1.1.1 3.2-.64 3.8s-3.9.1-4.8.1c-1.9 0-6.4.3-7.4-1.8-.77-1.5.9-3.8-.3-5.2-.7-.8-4.3-.3-5.47-.3H649c-1.75 0-4.2.5-5.54-.8 0 1.9-2.5.2-3.4 1-1 1 .1 3.7-.15 5-.8 3.5-7.4 2.6-10.2 2.3-4.5-.5-.2-6-4-7.3-4.6-1.6-11.2-.1-15.9 0 0-1.3-.5-1.1-1.2-2.1a4.92 4.92 0 0 1-.7-4.1c.4-2.3 1.3-3 1.8-5.2a32.84 32.84 0 0 1 1.9-5.3c.2-.6 1.2-4.4 1.6-4.4a10.78 10.78 0 0 1 .5-2.5c.2-.5 1-1.4 1.2-1.9.3-.8.2-1.9.5-2.8.1-.2.7-.5.9-.9.2-.5.2-1.4.4-2 0-.1.3-1 .4-1.7 0 .2.9-1 .9-.8.5-2.4 1.1-5.6 2.8-7.5 2.2-2.4 5.8-1.8 8.8-1.9 2.3 0 4.6-.1 4.2 2.9-.2 1.6-1.3 3.2-1.8 4.9a5.48 5.48 0 0 0-.2 1.7c-.9 0-3 8.9-3 10.1z" data-name="44"/><path id="_-" d="M609.5 54.3h56.08c3 0 5.9.1 8.86 0 1.47-.08 4.18-.84 3.52 1.3a10.2 10.2 0 0 0 3.8-.4 63.2 63.2 0 0 1 .4 6.32c0 1.83.1 1.32-1.22 2.3-3 2.23-6.82.42-10.16 1.1.14.56-2.18 1-1.7-.43-2.9.5-3.88-.2-6.74-.3 0-.3-2.53 1-2.53 1 .6-1.5-.7-.4-1.4-.9h-.6a3.24 3.24 0 0 1 0-1q-1-.2-.4 1.3l-7.2-.4c0 1.4-20.3-.8-19.8.8-.7.2-4.8.4-4.6-.4-2.4 0-4.7.4-7.1.4-2.6 0-.9-1.5-3.8-1.3-1.5 0-4.1.6-4.7-.6-.3-.6-.1-3-.1-3.5z" data-name="-"/></g><g id="Battalion-2" class="cls-1"><path d="M599.34 101.9a27.12 27.12 0 0 0 .6-10.9 6.66 6.66 0 0 1-.24-3c.1-.7.47-5.1-.36-5.1 1.6-6.57.1-13.92.47-20.62s0-13.2 0-19.82V9.96c0-.68.4-3.14 0-3.78-.3-.46-2.2-.8-2-1.32h-2V3.22c-2.3 1-5.2 0-7.7 0a8.46 8.46 0 0 0 .8-.56c.1-.5-2.3 0-2.5-.54-.5-1.1 1-.2 1.4-.58s-4.8-.32-5.1-.3c-3.2.15-6.8-.9-9.9.3l.4 1.27c-1.2 0 1.5 1.5 2.1 1.6s4.5-.4 4 .6c2 0 17.1 1.2 17.1 2.1-.8 0-6.7 0-6.5-.8-3.6-.7-7.8 0-11.4-.8.2-.7-5-.8-5.7-.8.4 1-.1 1.3 0 2.2 0 .2.5 1.4.5 1.5q-1 .3-.4 1.5a21.5 21.5 0 0 1 .3 2.7 7 7 0 0 0-.1.7q.5.3.1.5-.7.9.2 1l-.4.3.4 2.1c-.9 0-.4 14.2-.4 15.2v16c0 .4-.2 3.1-.2 3.2-1.8-1.9-2.5-6-3.2-8.5-.1-.4 0-1-.2-1.5h-.9l-.1-1.1c-.9-1.5-1-3.2-1.5-4.8.1.2-.8-1-.8-.8 0-2.2-1.6-3.1-1.6-5.5-.4 0-1.7-4-1.7-4.6-1.1 0-.8-2.5-.8-3.3-.8 0-3.8-6.6-3.8-6.7-.2.3-.1.8-.7.8.2-.6.7-1.2 0-1.7 1.5 0 .1-2.5 0-3.3-1.4.5-.6-1.1-1.1-1.5l-2.5-.5a3.4 3.4 0 0 0 0-2.5c.3.6-2-.6-1.6-.4-.1 0-.2-.4-.6-.5a6.56 6.56 0 0 0-2.6-.3 6.85 6.85 0 0 0 .8-1.7c-.9 0-1.7.5-2.4.5a1.4 1.4 0 0 1 .6-1.4c-.1.1-1 .9-.5.6-2.5 1.6.8 2.1.8 4.2-.7-.2-1.4-.8-2-.8l.4-1.7q-.6.2-.4-.4l-1.6.4c0-.3-.1-1-.4-1.1s.5 2.5-1.1 2.6c-.5 0-.8-.4-1.3-.7a6.2 6.2 0 0 1 0-1.2 2.75 2.75 0 0 0-.8 0c-.7-2-.4-2.6-2.4-1.1-.1.1-2.9 2.6-2.9.7l-3.6.4c0-.5 1.2-.7 1.2-2.1a4.68 4.68 0 0 0-1.8.4c-.6.4-.9 1.3-1.3 1.5-.9.4-1.6 0-2.6-.1a19.58 19.58 0 0 1 .4 3.8q1-.5 1.4.3c-.3.4-1.2 0-1.4.2 0 1.7.4 1.3 1.8 1.4l4.8.5 8.9 1c-1.7 1.5-4.6.2-6.5-.1-3-.5-6-.5-9-1.1 0 .9-.5 2.2.3 2.8a18.93 18.93 0 0 0 2.9.5c-1.1.5-2.3-.4-3.2.6s0 5.7 0 7V36c-.1 10-.4 20.2.1 30.1.5 9-.1 18.3 0 27.37 0 5.4.1 10.77 0 16.1 0 2.2-.9 6-.3 8.1.6 1.8.9 1.7 3.2 1.7-.4-.7-1.6-1.4-1.6-2.1 2 .4 2.7 2.5 4.8 1.7 1.7-.6 1.5-1.9 3.7-2.1.1 1.4 1 3.34 2.8 2.5 1.1-.5.7-2.9 2-2.86a5.38 5.38 0 0 1-.2 1.2c.8-.9 1.3 0 .8.9 1.4-.5.3.8 1.1 1s2.5-.1 3.4-.1c-1.1-.9.8-5.4.8-1.3l1.2-.4c-.3.7 0 1.1.8.8-.1-.9-.8-1.3-.5-2 .2-.5.9.4.9-.9.5.2.5.1.8.4q-1-.2 0 .9c-1.4 0 .4 1.1.4.9 0 .2 0 1.1-.2 1.1-.4-.1-1-1.3-1 .7.4-.6 2.3 0 2.8 0-.1-.7-.8-1.4-.8-2.1a5.4 5.4 0 0 0 1.6.4c0-8.9-.2-17.7-.4-26.6-.1-2.4-.8-22.7 1.2-22.7-1 1 .4 1 .4 2.1.7-.2.4.9.4 1.3.7-.2.4.9.4 1.3 0-.2.8 1 .8.8v1h.4c-.3.7.4 1 .6 1.7a11.65 11.65 0 0 0 .7 1.7c.5 1.6 1.2 2.8 1.2 4.2.7-.2.4 1 .4 1.3.7-.2.7 1.5.8 1.7a11.5 11.5 0 0 1 1.1 3.3 11.5 11.5 0 0 1 1.2 3.4h.4V94h.4v1c-.4 0 2 1.7 2.1 1.74.4.8.2 2.3.4 3.2.5 2.5 1.6 4.74 2 7.3q.9-.2.4.83h.4c0 .33-.2 1.5.5 1.28.1.53.6 3.14 1.2 3 0 1.07.5 3.37 2 3.37l-.5 2.5q.7-.2.5.4l1.2-.83c.7 1.5.84.2 1.6-.4.66 1.8 0 1.4 1.8 1.6 2 .2 4.2-.1 6.27 0 1.1 0 3.4.7 4.4 0 1.2-.7 0-2.2 2.2-2.2a16.78 16.78 0 0 1-.8 1.9c.1.5 8 .9 8.5.2.9-1.2-2.2-.5-2-.5s-.3-.8-.4-.8q.6.2.4-.5a3.7 3.7 0 0 0 1.7.4v-1.3c1 .3 1 .3 1.2 1.2.1.4-.9 1.8.2 1.3.7-.4 1.3-3.9-.2-3.4.1-.5 1.5-5.9.4-5.5-.1-.7.4-1.5.3-2.3a23.5 23.5 0 0 0-.8-3.2c.7-.1.3-1.9.3-2.6zm-70.8-96.57c.82.25.36-.06.82.42-.8-.25-.36.06-.8-.42zm3.27 2.1c-.1 0-3.1.1-2.8-.4s2.9-.07 2.9.4zm3.3.43c-.2 0-3.2.08-2.8-.42s2.9-.06 2.9.42zm-6.5 106.7c.8.25.4-.06.8.42-.8-.25-.3.02-.8-.42zm1.6-53.14c-.7.36-1-.24-1.2-.42.6 0 1.2-.26 1.2.42zm.8-48.92c0-.6 2.4-.7 2.5-.42.4.75-2 .42-2.4.42zm2 100c.8.25.4-.06.8.42-.8-.3-.3 0-.8-.47zm4.1-99.53l3.3 98.27c.8.25.4-.06.8.42-.8-.3-.3 0-.8-.47zm4.5-7.64c0 1.6-1.5-.5-1.6-.84a7 7 0 0 1 1.7.8zm-3.6-2.1c2 0 2 .34 0 .83zm-1.2 2.52c1.9 0 0 2 0 0zm1.7 2.53c-.2 0-3.2.08-2.8-.42s2.9-.06 2.9.42zm3.7.42c-.4 0-2.8.33-2.4-.42.1-.28 2.5-.18 2.5.42zm0-2.1c.8.24.4-.07.8.4-.8-.24-.3.08-.8-.4zm9.8 3c.2 0 3.2-.1 2.9.4s-2.9 0-2.9-.45zm-.8-4.23c-.8-.25-.3.06-.8-.42.8.25.4-.06.8.42zm-3.6-.84c1.8 0 1 .92 0 0zm-3.7.84c.6 0 1.7.77 1.7 1.48-.1.9-1.6-.86-1.6-1.48zm1.2 112.18h-.9c.2-.6.7-1.27 0-1.7 1.2 0 .8.6.8 1.7zm1.2 0c-.9 0 0-2 0 0zm.5-2.1c-.4-.34-2.1-1.38-1.7-2.18.2-.3.7.73.7.7l.2.62q1.3-.4.8.8zm2.4-.43c.8.25.4-.06.8.42-.8-.25-.3.06-.8-.42zm.8-103.75c-.7.44-6.3-.64-6.5-.84 1 .07 6.5 0 6.5.84zm-6.6-2.57l7.8.42c-.7.67-7.1.22-7.7-.42zm9.8 56.1c-.7 0-.6-1.08-.8-1.7 1.2 0 .8.6.8 1.7zm2.8-52.72c-.5.32-5.5-.65-5.7-.84 1 .07 5.7 0 5.7.84zm0-1.27c-.5 0-.5-.4-.8-.8q1.2-.4.8.9zm3.6 10.2a3.17 3.17 0 0 1 .9 1.3c-.7-.4-.6-.2-.8-1.2zm10.2 27c-1 0 0-2 0 0zm.8 3c-1 0 0-2 0 0zm.5 1.3a3.17 3.17 0 0 1 .8 1.3c-.7-.4-.6-.2-.8-1.2zm2 59c-1 0 0-2 0 0zm.8-55.2c1 0 0 2 0 0zm-.4 1.3a3.17 3.17 0 0 1 .8 1.3c-.7-.5-.5-.2-.8-1.2zm2.4 4.7c-.8 0-1.5-2.2-1.6-3a5.27 5.27 0 0 1 1.6 3zm.4-45.1c-.4 0-2.8.4-2.4-.4.1-.3 2.4-.2 2.4.5zm0-3c-.1 0-2.7 0-2-.4.5-.3 2-.1 2 .5zm4.1 3.4c-3.4 0 0-.9 0 0zm0-3c-.4 0-2.8.4-2.5-.4.1-.3 2.4-.2 2.4.4zm2 96.2c.6-1.3 1.2-.7 0 0zm1.6-95.7c-.2 0-3.2.1-2.9-.4s2.9 0 2.9.5zm3.7.5c-.1 0-2.7 0-2-.4.5-.3 2-.1 2 .4zm3.7.4c-3.4 0 0-.9 0 0zm4.5.5c-.2 0-3.2.1-2.8-.4s2.8-.1 2.8.4zm1.6 90.7c.8.3.4-.1.8.4-.8-.2-.3.1-.8-.4zm.8-90.2c-3.4 0 0-.9 0 0zm-77.9 83.1c1.2-6.5.7-13.2.3-19.7-.2-2.7.1-5.6-.2-8.3a19.56 19.56 0 0 1-.4-2c0-.3.8-.9.6-1.6q.5 0 .2-.4h-1.2q0-1 .8-.8c.2-.5-1.3-.6-1.3-1.2l.8.4c.6-1.5.2-2 0-3.4q.9-.1.5-.9a1 1 0 0 0-1.2-.3c.7-.5.7-3 1-3.9a11.8 11.8 0 0 0 1-5.3c-.1-4.6-.3-9.3-.3-14s0-9.4.1-14.1-.5-9.5-.5-14.2l-.8.4c.4-.3.4-.4.4-.8h-.4v-2a4.8 4.8 0 0 1-1.3.5q0-1 .9-.8c-.6-1.6-.8-.4-1.7-1.2-.4-.3-.3-1-.8-1.3a11.47 11.47 0 0 0-3.9-2c.3.7-.1 1.1-.8.8l.4-1.7c-.6 0-1.7.3-1.7-.5-1.9 0-1.7.9-3.2 1.1s-2-1.5-2.7-1.2q.6.7-.2.8-.7-.1-.2-.9H502q.2.6-.4.4L502 3c-.4-.3-1.1-.8-1.25-1.3l.5-.1a16.93 16.93 0 0 0-2.4-.45c-1.6 0-3.48-.3-5-.3a14.22 14.22 0 0 0-1.6.3c-.3.1-.4.9-.4.9s-1.1-.1-1.06-.3.6-.4.7-.3c-.5-.6-1.3-.2-1.8-.26l-1.5.1c-2.2 0-4.4-.1-6.6-.1.9.8 1 .2.3 1.1.1-.1-3.1.6-3.2.6 1-2-1.7-.3-1.7-1.7-2.7.9-6.9 0-9.7 0-2.3 0-4.7-.4-6.9.1-.7.2-1.1.5-1.6.6a29.55 29.55 0 0 0-3.2.3c-2.5.7-6.1 3.2-6.1 6.1-1.9 0-.7 9.1-.9 9.7 1.4 0 0 1.5-.1 2.4a16.22 16.22 0 0 0-.2 2.8c.2.9.7 1.6.9 2.3.2 1.7-.6 1-.9 2.4a17.18 17.18 0 0 0 .4 2.2 16.16 16.16 0 0 1-.5 3.6c.2 0 .4 6.6.4 7.2-1.3 0-.7 5.4-.6 6.2a69.07 69.07 0 0 1 .1 10.7c1 0-.2.8.8.8-.2.7 0 2.5-.9 2.5 0 12.7.1 25.5 0 38.2 0 3.8-.3 8.1.8 11.7.8 2.4 1.9 3.1 3.9 4.4l.3.9q.2.8.9.3c.7.8.8-.2.8 1.3 1.5-.1 3.3-.7 4.7 0 0-1.1.8.2 1.1.3.9.2.8 1 2.3.6.8-.3 1.2-.9 1.9-1a6.92 6.92 0 0 1 1.8.2c.4 0 .9-.5 1-.5.5.1.6 1.1 1.1 1.2 1 .3 2.5 0 3.5 0 1.2 0 5.3.9 5.3-.8.7.1 7.3 1.9 6.8.4a10.45 10.45 0 0 1 3-.1c.6 0 .6.6 1.5.5s1-1.2 1.8-1.2l-.4 1.3c1 0 2.1-1.8 2.1-3l1.7.8c0-1.7 2-.3 2.7.2 1.7 1.2 1.8 1.9 4 1.9-.3-.5-1.5-1.3-1-2s1.2.1 1.4.7c-1.5 0 1.3.8 1.7.9 0-.8.9.1 1.7.4q-.2-.9.9-.5c-.2-.6 2-1.1 2.6-.8.1-1.3 3.6.3 5.1-.4q-.4-.6.2-1 1 .5 1-.7c1-.4 2.3 0 3.4 0a4.8 4.8 0 0 1-.4-1.3l1.3.5c.3-1.5 1.3-2.8 1.4-4.3.1-.9-.7-2.4.6-2.4a25.26 25.26 0 0 1-.4-5.9l-.9.4V99zM462.7 112c.94 0 0 2.8 0 0zm-3.36 2.1c.87.26.4-.05.87.43-.8-.25-.3.06-.8-.42zm3.8 3.8q-.6-.2-.4.43a4.37 4.37 0 0 1-1.26-.84c.6.2 1.27.7 1.7 0zm.45-2.52c-1.4 0-2.3.42-3.4.42a5.77 5.77 0 0 0 .4-1.7c1 .48 1.4.8 2.5.43 0 .92.4-.07.4.84zM493.1 2c-.83-.25-.35.06-.83-.42.84.25.37-.06.85.42zm-21.1.38c-.84-.25-.36.06-.84-.42.85.25.38-.06.85.42zM468.18 2c1.13 0 1.7-.42 1.7.84-.63-.2-1.7-.38-1.7-.84zm20.3 114.7c-.7 0-1.28-1-1.28-1.68.9.6 1.26.56 1.26 1.7zm11.4-20.7c-2.33.84-5.13.13-7.57.53a44.52 44.52 0 0 1-7.6.62c-2 0-10 .9-10.1-1.56q-.6.2-.4-.5c2.3 0 1.3-2.8 1.3-4.8v-9c0-2.9 0-5.7.1-8.6.1-1.1.7-5.2-1-4.7 0-2-.3-4.5 0-6.4q0-.8.8-.3a4.57 4.57 0 0 0 .1-1.8c0-1.1.1-2.3 0-3.4-.1-2-1-1.6-1-3.7 0-.4.1-5 .7-4.8.4.1 0 3 0 3.3 1.5-1.7.6-5.4.4-7.4-.1-3.1.5-6.6-.4-9.5-.7-2.5.2-5-.3-7.5s-5.4-3-7.7-3.1c2.5-2.1 8-.2 11-.6a54.43 54.43 0 0 1 9.3-.5c1.4 0 4.6-.4 5.6.7s.3 5.5.3 6.9v9c0 1.7-.8 13 .9 13-.2.6-.1 1.2-.8 1.2.5 2.7.2 7.6.2 10.3a62.4 62.4 0 0 0-.1 7.1c.1 1.3.6 2.6.8 4 .1.4-1.3 1.3 0 1.3a37.24 37.24 0 0 0-1.4 6c.8 0 .3 9.9.4 10.7.3 2 .6 2 2.5 2.1.8.1 4.3.1 4.3 1.2zm-25.37-4.22a18.22 18.22 0 0 1 .5-3.37c.4.4.1 3.4-.4 3.4zm0-47.24a18.22 18.22 0 0 1 .5-3.37c.4.37.1 3.37-.4 3.37zm26.7-35.4c-.7.35-1-.25-1.2-.43.6 0 1.3-.2 1.3.5zm2.1 105.43s-1.1-.08-1-.27c.3-.66 1.1-.56 1.5-.16-.4.3-.1 0-.4.42zm5.9.84c-1 0 0-2 0 0zm.5-1.6c-1 0-1.2.3-1.2-.8.6.2 1.3.2 1.3.9zm.9-107.5c-2.1-.3-4.3-1.5-6.5-1.8-2.8-.4-5.7-.4-8.5-.6-1.2-.1-12.8-.6-12.8-1.7 3.6.2 7.3.7 10.8 1.1 1.1.2 2.3.4 3.4.5.7.1 3.9.1 3.7.6 1.8.4 10.2-.4 10.2 2.1zm5.9 1.7c-.8-.2-.3.1-.8-.4.9.3.4 0 .9.4zm-5-2.5c.6 0 4 .4 4.2.4a4.26 4.26 0 0 1-4.1-.3zm5.5 109.3c-1-.2-.8-.1-1.2-.8.6.2 1.3.2 1.3.9zm2.1-2.1c-1 0 0-2 0 0zM443.4 9.6c0-1.24.77-5.9-.85-5.9.64-1.93-1.37-1.95-3-2.54-.32.8 2.23 1.6 1.13 3.13-.42.6-2.2.6-2.82.6.24-.7.3-1.7 1.27-1.3.35-.7-1-.4-1.27-.4.42-.9 1.07-.9.47-1.8-.3-.4-3.14-.3-3.6-.3-2-.1-3.44.4-5.74-.1-2.6-.5-5.4-.3-8-.3-1.5 0-4-.5-5 .8s-.2 3.8-.2 5.1c0 3.4-.2 6.9-.3 10.3 0 1.5.1 16 .7 16l-.4 2.1c1 0 .2 8 .4 8.8 1.5-.4-.7 2 .8 1.7v1.6c.4-.2.7.4 0 .4q-.2.6.4.4v1.3q-.2.8.8.8a20.4 20.4 0 0 1 0 2.2 17 17 0 0 1 .5 3.8c-.1 1.4.4 1.3.8 2.3.2.6.4 3.1.8 3 .3 1.7 0 2.8.4 4.6 1.2-.3-.4 3.7.8 3.4a1.77 1.77 0 0 1-.3 1.7c-.6.2-3.2-16.2-4.4-16.1-4 .2 1.2 19.4-1.4 19.4l.4 6.7c-.7 0-.7 2.1 0 2.1-.1 1-1.2 3.8.4 3.8-.1.5-.4 3-.9 3l.4 8.4c1.7-.8.9 2.1.8 2.7-.1.2-.6.9-.7 1.2-.2.5 1.1 1.5-.1 1.5 0 .4-.2 3 .9 3-.1.6-.8.8-.8 1.5 0 .5.6 1.1.8 1.5-2.4-.8 1.3 2.5-.9 2.5l.4 1.3c-.8 0-.7 2-.7 2.5.2 2.7 2.8 2.3 5.2 2.3 6 0 12.2-.7 18.3-.2 0-.4 1.9-.6 2.3-.9-.4.3.6-1.5.5-1.3a8.54 8.54 0 0 0 .9-1.6c1.3-4.3 0-10.3 0-14.7V85c0-1.83.5-4.4-.3-6.1-.3-.6-1.7.45-.8-1.1a.84.84 0 0 0-1-.13c.3-1 1.3-1.6 1.6-2.6a9.28 9.28 0 0 0 .4-2.7c.1-1.6.1-3.9-2-3.9.7-.3.7-2.3.6-3-.1-1-.9-1.4-1-2.1s1.8-2.4 2.1-3.4c.5-1.5-.6-1.4-.8-2.3a7.14 7.14 0 0 1 .4-3c.3-1.3.8-1.9.7-3.4 0-.5-.6-.7-.6-1.3 0-.3.5-.1.5-.4 0-.6.1-6.1-.3-6q-.2-.6.5-.4a18.76 18.76 0 0 0 0-2.5c-.8.3-.5-1.4-.5-1.7.7.2.2-11.9.1-13.3-.2-2.5.4-5 .5-7.5.1-2.9-.1-5.8-.1-8.7zm-23.27-3.4c-1.66 0-1.45-.36 0-.84zm3.8 93.2c2 0 0 2 0 0zm-.84 17.72c-1 0-1.3-.84-.5-.84-.1 0 .4.7.4.84zm.4-32.05c-1 0 0-2 0 0zm.4 17.28c.8.25.3-.06.8.42-.9-.25-.4.06-.9-.42zm.8 8.86c.8.3.3 0 .8.5-.9-.2-.4.1-.9-.4zm.8-108.4c-1 0 0-2 0 0zm.8 114.3c.8.3.3 0 .8.5-.9-.2-.4.1-.9-.4zm1.3-114.7l-.1.4c.2-.1-1.7-1.2.5-1.2-.2.5 0 .5-.4.9zm4.6.4c-.9-.2-.4.1-.9-.4.7 0 .9-1.2.9.4zm8 2.6c.8.3.3 0 .8.4-.8-.2-.3.1-.8-.4zm-96 108.4c.8-1.7 1-1.6.5-3.7l-.9-3.8c-.5-2.2-.9-4.5-1.4-6.7-.4-1.6-2.8-16.4-3.8-16.4a13.56 13.56 0 0 0-.4-2.3q-.7-.1-.5-.8a1.86 1.86 0 0 0 .4-1c-.8.2-.3-.6-.4-.9a8.33 8.33 0 0 1-.6-1.4c-.4-1.4-.1-3.2-.6-4.5-.4-.8-1-.6-1.3-1.2s.5-2.2-1-1.7a24.37 24.37 0 0 0 0-4.7 3.77 3.77 0 0 0-.5-1.8 6.5 6.5 0 0 1-.4-3c0-1-1.8-15.3-3.4-15.3l.4-1.7c-1.5 0-.6-5.5-2.1-5.5l.4-2.5c-1.5.4.6-2-.9-1.7v-1.7c-.8.3-.4-1.8-.4-2.1-1.5.4.6-2-.9-1.7-.6-4.1-1.6-8.1-2.1-12.2q-.9.2-.4-.7.6-1.5-.9-1.8a13.7 13.7 0 0 1 0-2.5c0-1.2-.1-5.6-1.7-5v-2c-.5.2-1.4-1.7-2.1-2-1.2-.5-3.4 0-4.7 0l.4 2.1c-.6 0-2.5-.8-2.6-1.4s.9.2.8-.4-5.3-.2-5.5-.2c.7 1.1 2 .7 2.6 1.4.4.5-1.4.2-1.5.4-.3.6.5.8-.2 1.3a9.8 9.8 0 0 1-2.3.2c.2-.9.8-2.6-.3-3.2-.9-.5-2.4.5-3.5.2 0 2 .8.3 1.6 1.2 1.3 1.6-.7 1.8-1.6 1.8-.5 0-1.4.5-1.8.1s.1-.9.1-1 .5-.5.2-1-1.6 0-1.9.1c0-.7.9-.8.8-1.3-.2-.8-2-.5-2.6-.5a3.33 3.33 0 0 0-2.6.8c-.6.4-1.5 1.1-2.1.8a1.9 1.9 0 0 1-1.7 1.7c.6-1.1.9-.4.9-1.7-1.6.6-1.4 1.4-1.7 3 1.7 0-.4 2.1-.2 1.8.1-.1-1.5 2-.2 1.6a11.57 11.57 0 0 1 0 2.1l-1.3-.4c.1.9.5 2.2.3 3q.4.8-.2 1a3.5 3.5 0 0 1-.9.5c-.1.6.9 4.3-.5 4q.4 1-.5.8l.4 2.1c-.6-.1-2 3-.8 3-.2 1.2.1 2.5-1.3 2.5.4 2.6-.8 3.6-.5 6.3-1.1-.3.2 1.2-.8.9-.3 1 .1 1.7 0 2.6s-.6.9-.8 1.6q.6-.2.4.4c-1-.2-.3 1.9-.4 2.4-.2 1-1 .2-1 1.8-.8-.2-.8 1.6-.9 2.2 1.8 0 .8.6 1 1.2-.3-.8-1 1.4-.3 1.2s-.5-.6.6-.6c-.8 1-.6.7-1.7.4l.4 1.2c-1.2 0-.9 3.4-1.1 4.3-.1.4-.5 1.1-.5 1.5-.1.7-.5 2.3-.5 2.4a8.62 8.62 0 0 0-.4 1.9q-.8.1-.3.7a1 1 0 0 1 .7.4c-.3 1.2-2 1.4-1.7 3 .8-.2.4 1.9.4 2.1l-1.3-.4.4 3c-1.6 0-.3 2.9-.1 3.4a4.74 4.74 0 0 1-2 5c.8.5 0 4.1-.9 3.8q.4 1.1-.4.9a35.47 35.47 0 0 1-.6 5.2 10.4 10.4 0 0 0-.5 2.3c0 .5.4 1.4.3 1.9-.2.6-1 .5-1.3 1.1a6.94 6.94 0 0 0-.3 2l-1 5.7c-.9-.3-.4 1.8-.4 2.1-1.3-.4 0 4.5-1.3 4.2v1.4c-.6-.2-1.2 5.2-1.3 5.9.7 0 .5 1.4.1 1.3-.7-.2-1.4 1.1-.9 2.2s4.1 2.3 4.1.3c1.1.3 2.1 1 2.1 2.1l-2.6-.8q.2.6-.4.4c1.1 1 6.8 1.5 6.8-.4l1.7.4c0-.4.7-1.1 0 .4 3.7 0 7.5.4 11.3.2.7 0 2.6.1 3.3-.4 1.1-.72.3-1 .6-2.3.8.2.7-3.4 1.5-3.9s4.7.2 5.8.2c5.9-.1 11.7-.1 17.6-.1l-.4 3c2-.6.7.2 1.9 1.5.6.7 3.6 1.5 3.6 1.9h22c-.4-1.7 0-5.1-2.2-5.1zm-74-4.6c-.6 0-.7-2.4-.4-2.5.7-.3.4 2.1.4 2.6zm1.7-8l.8-4.6c-1 0 0-2.8 0 0zm1.7 19c-1-.2-.8-.1-1.3-.8.6.2 1.2.2 1.2.9zm9.7 1.3c.8.3.3 0 .8.4-.8-.2-.3.1-.8-.4zm4.2-3.8c-2 0 0-2 0 0zm27-23.2c.5 0 .7 1.6.4 2.1-.4.7-.4-2-.4-2.1zm-.9-5.5c.6 0 .6 2.5.4 2.6-.8.4-.4-2-.4-2.5zm-.8-4.6c.5 0 .7 1.6.4 2.1-.4.7-.4-2-.4-2.1zm-.4-75c-.9-.2-.4.1-.9-.4.8.3.4 0 .8.5zm0 69.6c0 .5.3 2.9-.5 2.5-.3-.1-.2-2.5.4-2.5zm-1.1-15c1 0 0 2 0 0zm-.9-5c1 0 0 2 0 0zm-.8-5c.6 0 .7 2.5.4 2.6-.7.4-.4-2-.4-2.5zm-2.5-14c.6 0 .8 1.6.4 2.1-.5.7-.5-2-.5-2.1zm-8.4-38c-.9-.2-.4.1-.9-.4.8.3.3 0 .8.4zm-2.1.9l.7.1a22.64 22.64 0 0 0-3 2.7c-.4.4-2.6 3.6-3.3 3.6.7-2.8 4.1-4 5.5-6.3zm1.2 107.1c-1 0 0-2 0 0zm19-12.6c-8.6 1.6-17.3-.8-25.8.5 0-1.6 3.8-2 4.9-2.3 2.4-.6 2.3-.7 2.7-3.1.2-1.4.8-10.6 2.2-10.6a13.9 13.9 0 0 1 .5-4.5c.2-.8.2-4.4.8-4.2.2-.8-.1-1.7 0-2.5a9.28 9.28 0 0 0 .7-1.8l1.4-8.9 2.6-17c.6.6.4 3.8 1.1 3.9.6 0-.4-3 .6-3l-.4 5.9c.7 0 .3-1 .6-1.3.7-.6.4 3.8.4 3.5 0 .2-.7 4.5.3 4.2v1.7c.9-.2.5 2.8.5 3.4.8-.3.4 1.2.7 1.1.7-.2-.4-.6.6-.6a12.55 12.55 0 0 0-.4 4.6 4.8 4.8 0 0 1 1.3-.4c-.3 1.1-1 4-.5 5.1.6 1.3 1-.1 1-.9.7.9-.6 7.1.4 6.8 0 .9.5 4.8.8 4.7 0 3.5 1.1 6.9 1.5 10.4.1 1.2.2 3.2.7 3.9.3.4 1-.1 1.3.5.2.4-.1 1.4-.1 1.8zm.8-93.6c-2 0 0-2 0 0zm2.1 1.7h-.8q0-1 .8-.8-.4-1 .4-.8zM337 116.4q.2-.6-.4-.4a5.1 5.1 0 0 0 .4-2.1 4.8 4.8 0 0 0 1.28.4l-.4 1.3c.5.2.5.1.83.4-.5.2-.9.8-1.6.4zm4.23.9c-1 0 0-2 0 0zM269.63 24q.6-.2.4.4h6.16c-.4-1 1.9-.1 2.2-.3s.7-1.5.8-2a25.3 25.3 0 0 0 1-6.8c-1.8.5-3.2 2.2-4.4 3.5-.7.8-1.8 2.9-3 2.9 1.6-2.9 6.5-4.6 7-7.9a30.74 30.74 0 0 0 0-8.6c-4 3.6-8.1 7.1-11.7 11-3.2 3.4-6.6 5.6-9.8 8.7-1.6 1.5-2.4 2.5-3.9 3.8-.8.8-1.1.5-1.9 1.2l-1 1.3a1 1 0 0 1-1.2.7l-.2-.1a85.37 85.37 0 0 1-8.3 7.2c0-.8 1.2-1.8 1.7-2.1a2.7 2.7 0 0 0 .7 0q-.2-.8.7-1c1.1-.93 2.3-1.8 3.3-2.74a6 6 0 0 0 .7-1.2l1.1-.14c1.5-1.22 3-3 4.5-4.4.8-.8 1.8-1.74 2.7-2.5s1.6-1.53 2.5-2.22c3.5-2.5 6.1-6.1 9.6-8.6a16.63 16.63 0 0 0 3-2.7l1.3-1.6a1.38 1.38 0 0 1 1.7-1c.6-.55 3.3-3.74 2.4-3.4a3.37 3.37 0 0 0-2.7-2.2c0-2.1-2.2-1.5-4.1-1.7v1.2c-.8 0-1.8.1-2.1-.87h.5c.2-.2-3.8-.1-3.8-.1s-1.7-.8-1.7 1c-1.1-.16-1.9-.84-3-1a16.27 16.27 0 0 0-3.1.1c-1.2.08-2.5.16-3.7.1-.8 0-3-.75-3.8-.44-.4.2-.6 1.1-1.2 1.2-.8.1-.5-.5-.6-.5.2.1-.1-.5-1-.5-.2 0-.1.7-.5.8-1.2.1-2.5-.4-3.7-.5-.7 0-.7.3-1.4.3s-1.7-.3-2.5-.3c-5.2 0-11.6 1.1-16.6-.4 0 1.3-4.9-.5-4.9.8l-1.7-.4c0 1.1-2.5.3-3 1s.1 4.9.1 5.8v15c.8 0 .9.8 1.6.9.1 0 .8-.9 1.2-.9.1 0 2.5.5 2.6.5a70.94 70.94 0 0 0 9 .3c.7 0 4.2-.6 4.8 0 .4.3 0 3.3 0 3.8 0 1.2-.6 3.9-.1 5.1.7 1.7 1.1.3 2.4.7l.1.4c-1.2 0-1 .6-1.2 1.7.9 0 .7 2.5-.4 2.5q.5 1.2-.8.8c.1.9.1 4.6.9 4.6l-.4 3c1.2 0 0 1.3 0 1.7-.2 1.1.1 2.8-.4 3.8 1 0 .5 1.3.9 1.8s.8.1 1.2.5c-.4-.4-2.1.9-2.3 1.5-.5 1.2.6 3 .6 4.2l.8-.4-.4 1.2.4.1a10.6 10.6 0 0 0-.4 1.5c.1.6.7 1 .8 1.8s-.6 1.5-.8 2.6a21.3 21.3 0 0 0 .2 3.2c0 1-1.5 4.2.8 4.2-.2 1 .2 3.3-1.3 3.3.4 1 .2.5 1.2.4a1.83 1.83 0 0 0 0 1.7q-.7-.2-.5.4h-1c.1.8.8 1.5.8 2.2q1-1 1.2.5c-1 0 0 1-.2 1 .3-.1.6-1.8.6.2a6 6 0 0 1-1.6-.4q.5.9-.4.8t-.5.8c-.4 1.2 0 3.1 0 4.3V110c0 .94.1 7.16 0 7.16.6 2.45 2.6 1.56 3.9 1.47 2.7-.18 5.9.4 8.84-.2 0 .87 12.5.4 13.6.4-.4-1.1-.6-1.6 0-2.18-.7.66-.9-2.38-.9-2.47 0-1.15.2-2.3.16-3.5s-.1-2.17-.1-3.22c1 .27.3-1.78 0-2.1 1.5 0-1.4-5.1 0-4.65q-.4-1 .4-.8l-.4-2.5q.9.3.4-.8c1.9-.2.7-6.2.6-7.4-.1-3.8.2-7.7.3-11.5.1-8.3.1-16.6.3-25 0-1.2.6-3.4.1-4.5-.2-.6-1.2-.8-1.4-1.7a2.1 2.1 0 0 1 .1-1.3c.3-1 .9-1.2 1-2.4a29.43 29.43 0 0 0-.2-4.5c-.2-3.7-.1-7.5 0-11.2 0-.6 0-1.9.3-2.2.6-.5 2.8.5 2.8-.6.1 0 7.2 1.3 7.2 0zm7.4-3.8q1.25.4.82-.8 1.26.4.83-.8c.5.2.46.1.83.5-.6.6-2.8 3-3.3 3a9.3 9.3 0 0 0 .8-1.7zm-1.67 1.7c1 0 0 2 0 0zm-.9.9h.4c-.4.6-.6 1.3-1.3 1.3zm1.6-6.3c0-.5.8-1.2.8-.7a2 2 0 0 1-.9.7zm2.8-8.5l.5.2c.1.2-4.1 4.7-4.7 4.5zm-3.3-2.1c1 0 0 2 0 0zm-2.9.4c.5.2.4.1.8.5-.7 0-.9 1.3-.9-.4zm-3.3-.8c-.8-.2-.4.1-.9-.4.8.3.4 0 .8.4zM251 4.2c-.82-.25-.35.06-.84-.42.85.28.4-.03.85.45zm-28-1.3c-.84-.1-1.2-.1-1.65-.87.84 0 1.67.07 1.67.8zm12 38.7c-.8-.27-.34.04-.83-.44.85.27.4-.04.85.44zm0 3.35c0 2.66-.85 0 0 0zm-.83 3.8c1.9 0 1.05.94 0 0zM235.9 66c-.9 0 0-2 0 0zm-.84-18.56c.8.24.35-.07.84.4-.77-.24-.3.07-.77-.4zm1.24-9.3c-.5-.15-.46-.05-.83-.4.48 0 .47-.17.83-.43zm9.07.43c1 0 .05 2 .05 0zm-.85.84c1 0 .08 2 .08 0zm-1.25 2.2c-.82-.2-.35.1-.84-.4.92.3.47 0 .92.5zm-3.3-1.7h.42c-.5.6-.9 1.7-1.7 1.7zm-2.47 2.6c0-.4.86-1.2.9-.7a2 2 0 0 1-.8.7zm2.08 15.2c-.54-.1-.5 0-.86-.4.5 0 .5-.1.85-.4zm2.86.5a7.1 7.1 0 0 1-1.65-.8c0 2.4-.3 0-.7.6a2.25 2.25 0 0 0 .2-1c.8.1 2.1.4 2.1 1.3zM242 47.5c.5-.9 3.2-3.8 4.12-3.8-.4.9-3.12 3.8-4 3.8zm1.65 10.12c-1.9 0-.28-1.82.42-2.53.77.9.16 1.5-.35 2.5zm3.35-11.8c-1.37 0-2.07 2.53-3.7 2.53.37-.48 3.8-3.82 3.8-2.53zm.42-3c0 1-1 0-1 .16.24-.7.62.46.62-.58.52.16.47.06.84.42zm.84-6.75c1.85 0 .28.6-.42.84zm.42 7.6c0-.43.84-1.2.88-.7a2 2 0 0 1-.83.7zm.84-3.38c.82.2.35-.1.84.4-.8-.3-.35 0-.8-.4zM252 58.9c-1 0-1.24.3-1.24-.85.63.2 1.27.18 1.27.84zm-1.24-16.46a.84.84 0 0 1-.9-.15 10.76 10.76 0 0 1 2.14-1.6zm1.65-3.8c-.3.42 0 .1-.4.42 0-.9.3-1 .9-.42zm4.6-10.12c1 0 0 2 0 0zm-2 8l-.1.46c.1 0-.9-1.3.6-1.3-.1.52 0 .5-.4.84zm2 19.82q.2.63-.4.42a3.54 3.54 0 0 1 .8-1.36c.3-.2-.3 1-.2.94zm1.7-22.77a5.16 5.16 0 0 0-1.1.56c-.1.05-1.1 1.23-1.3.9-.5-.8 2.5-2.53 2.5-1.46zm8.7-13.92c0 .63-1.8 2.53-2.4 2.53.9-1.57 2.5-2.5 3.8-3.72.6-.62 1.8-2.6 2.9-2.6-1 1.13-2.5 3.8-4.1 3.8zM205.8 2.8h-.8c.1-.15 1-.47.7-.84-.2-.16-1.7.07-1.7-.3a.87.87 0 0 1 .5-.16 23.3 23.3 0 0 0-2.53-.4c-1.3 0-2.7-.12-4 0-1.87.15-2.47 1.47-4.28 1.73.3-1.3 1.2-.6 1.6-1.27.5-.84-3.4 0-3.2 0-2.2 0-4.6-.45-6.9-.42-.2 0-.5-1.05-.5 0-1.7 0-14.5-.66-14.5.42a4.54 4.54 0 0 0-1.3-.22s-.4.48-.5.46c-.8-.06-1.1-.45-2-.66-.5-.1-7.9-.42-7.9.42-.8-.4-4.8.05-4.8-.42-1.9.65-4.5-1.15-4.5 1.7-2-.54-2.4-3.38-2.4.4l-1.2-.83c-.5 1.1-.7 1.6-2 1.7.5 1 .8.9.8 2.1a5.27 5.27 0 0 0-1.6-.4q.4 1.3-.8.9c0 1-.7 1.5-.8 2.7a44 44 0 0 0 0 5.3v6.2c0 .7-.5 2-.1 2.6 1 1.5 7 1 8.6 1.1 4 .1 8 0 11.9 0v26.1c0 4.2 0 8.5.2 12.7.1 3.9-.5 7.7-.6 11.6-.3 8.3.3 16.7.3 24.9 0 4.1-.1 8.1 0 12.2 0 .5-.5 5.6.1 5.6 1.2 0 .4-2 1.9-2-.2.5-.5 3.1.2 3.4.5.2 1-2.1 1.3-2.6a2.45 2.45 0 0 1 .4 1c-.9 0 .4.5-.4 1a1.9 1.9 0 0 1 .4.7 5.85 5.85 0 0 1 1.6-.8c0 2.4 1.5-.9 1.6-1 1.2-.9.8.5.8 1.8l1.6-.4c0 .9 3.8.5 4.2.4a4.55 4.55 0 0 1 1.2.1q.3-.3.5-.7c.2 0 1.9-.7 1.6.3.8.1 1.6-.5 2-.5 1.1 0 1.9.6 3.1.5 3-.3 4.9-1 4.9-4 .1-3.6 0-7.3 0-11 0-1.3.9-8.1-.8-8.1a14.4 14.4 0 0 0 .5-3.4c1.2.4 0-4.9-.4-5.9 1.4 0 .8-2.7.4-3.5a4.12 4.12 0 0 0-.7-1c-.3-.3-1.3.4-1.2-.6 0-.3 1.5-.2 1.8-.6.7-.7.4-3 .5-3.9h-1c.3-2.2 1.1-3.1 1.2-5a13.86 13.86 0 0 0 .1-2.9c0-.2-.8-1-.9-1.8 1.8 0 1-8.2.9-9.6 0-2.5-.2-5.1-.1-7.6 0-.6.3-5-.5-4.7 0-.7-.2-1-.2-1.7-.1-1.4.7-2.2.7-3.4 0-.4-.7-.7-.8-1.2a13.9 13.9 0 0 1 .7-3.7c-.8 0-.1-7.3-.1-7.8 0-1.1-.2-1.8.5-2.4s4.5.2 5.4.2c2.1.1 11.5 1.4 11.5-2.2l1.2.4V1.6a3.52 3.52 0 0 0-2 1.2zm-57.9 3l4.8-2.53h-1.2c.13.67 1.5 1.34 1.1 2.08h-.73c.63-.5-1.2.65-.84.47-.5.27-.24-2.55-.1-2.83.38-.6 1.77-1.3 1.77.2zm1.6 1.27c0-1.65 0-2.1 1.6-2.1 4.54-1.57 4.2-.48 3.2-.48zm1.6.84c.8.3.3 0 .8.5 4-2.8 4.44-2.5 4-3zm.8-1.6c1.2 0 .9.6 1.2 1.7 3.7-2.6 3.9-3.3 3.6-4.3zm1.6 3.8q.2-.6-.4-.4c.4-1.5 1.7-3 2.4-.8 3.5-2.4 3.7-2 2.8-1.3zm2.4-3.3c-1.9 0 0-2 0 0zm3.2 101.2q-.67.4-.9-.2l.5-.1-.4-.8a3.4 3.4 0 0 1 1.2.9c-.4.3-.1 0-.4.4zm0-2.1c-1 .9-.8-.1-.8-1.3a4.86 4.86 0 0 0 1.2.4zm.4-43.4c.8.3.37 0 .8.4-.8-.2-.34.1-.8-.4zm16.5-2.2a4.86 4.86 0 0 0 6-2.2c-.33.6-1.4 1.7-2 1.7a5.74 5.74 0 0 1 .8-2.1zm1.2-56.1c0 1.7-.34 1.5-.8 0zm-5.62 56.1c2.2-1.1.8-1.1.42-2.5a5.05 5.05 0 0 0 2-.9c.53 1.2 2.4 1.8 2.4 3-1.1-.3-1.6-1.1-2.8-1.3 0 1.9 1.2-.3 1.2 1.7-.8-.3-3.22.4-3.22-.1zm-1.58-.5c.1-.6.84-.3 1.2 0-.5.4-1.63.2-1.2 0zm-4-58.2l13.26 99.6 1.6-10.1a.8.8 0 0 0-1.2.7.8.8 0 0 1-1.2.6c-.63.7-.95 1.6-1.62 2.2 0 0-1.18.6-1.34.7-1 .8-1.44 1.3-2.28 2s-1.74 1.7-2.6 2.4l-.5.6a.93.93 0 0 1-1.12.7h-.2c-.68.5-2.23 3-3.2 3 1-1.9 3.4-3 4.92-4.4a65.88 65.88 0 0 1 5.2-5c1.45-1.1 2.6-2 3.93-3 1-.7 2.7-3.2 4-3.2-.62 1-2 2-2.8 3zm.42 8c.8.3.35 0 .8.4-.82-.2-.37.1-.82-.4zm1.6-.8c0 1-1 0-1 .2.23-.6 1-.6 1.42-.1zm.43 1.3c.8.3.35 0 .8.4-.84-.2-.4.1-.84-.4zm16.03 86c.8.3.35 0 .8.4-.84-.2-.4.1-.84-.4zm2.36-94a8.34 8.34 0 0 1-2.4 1.3c0-1.4-.06-1 1.2-1.2-.22-.7 1.4-.7 1.2 0zm-33.2 115.5c-.2-1 0-2.6-.6-3.5-.27-.3-1.4-.6-1.5-1a1.2 1.2 0 0 1 .88-.1c-.1-3.5-1.48-7.4-1.85-10.5-.2-1.5-.67-3.7-3.08-3.8.4-.9.6-1.7 1.6-1.7-.2-.8.1-3.8-.9-3.8l.4-1.2a7.07 7.07 0 0 0-1.6 0s1 0 .9-.2a5.4 5.4 0 0 1-.5-.8 4 4 0 0 1-.6.7c-.4-.5 0-3.5.4-3.2a.77.77 0 0 1-.5-.4c.3-.7.5-3.1-1.2-3.1.3-1.2-.4-.5-.4-1.7a11.34 11.34 0 0 1 .4-3c-2 0-.5-.9-.8-1.9-.5-1.3-1.8-.7-1.4-2.3 0-.3.7-.5.8-.7.1-.5-.3-.7-.2-1 0-.7.1-3.2-.9-3.3q.4-1.1-.4-.9c0-.4.6-.8.6-1.2a6.22 6.22 0 0 0-.4-2c-.1-.7-.4-3.5-1.1-3.2q.4-1.1-.4-.9c.1-.8.7-4.2-.4-4.2.2-.6-.5-2.8-.5-3.8-1.4 0 .6-2.1-.9-2.1 0-2.1-1.1-.9-.5-3-.6 0-.9-4.5-.9-5.1h-.4c0-.2.4-2.3-.5-2.1-.6-4.3-1.5-8.5-2.5-12.7-.3-1.3-1.5-8.9-1.8-8.8 0-.2-.1-1.5-.2-2.1-.4.2-1.2-5.6-1.6-6.4-.6-1.2.1-.5-.8-1.2-.3-.2-1.2.3-1.5-.2-.1-.1 1.7-.5 1.8-.8.3-.6-.7-1.7-.8-2.2s.7-.8.3-1.3c-.8-1-8-1.4-7.9-2s6.6.7 7.4.7l-.7-4c-1.4.4-1.2 1.4-2.7 1.4-2.1 0-3.6-1.4-6-1 0-1.7-5-.6-6.2-.4.6 2 2.5 1.4 4 1.4.7 0 3.4.6 3.8 1.4.1 1-2.3-.8-1.7 1.1-.9-.5-1.4-1.2-2.2-1.4s-4.4-.3-4.4-1.1c-1.1 0-2.2-.4-3.3-.4.3-.8-4.2-.3-4.9-.4.3 1.4 1.6 2.1-.4 2.1.3 2.5.3 3-2.1 3l.4-2.1c-1.7 0-1.2 1.5-2.1 2 .3-.2-1.1.2-.9-.2a.6.6 0 0 1 .7-.2v-.3h-1a5.07 5.07 0 0 0-.1-1.3c-.5-.4-.6 2.8-.9 3s-.2-1.9-.2-2.1a5.34 5.34 0 0 0-1 1.6.64.64 0 0 0-.9.1l-.1.1a11.7 11.7 0 0 0-.2 2.8c-.1 1-.4 6.5-1.3 6.2q.4 1.1-.5.8c-.2.8-.9 4.4-.4 4.9-.3-.2-.5 1-.5 1l-.5.1a5.44 5.44 0 0 1 .1 1.6c-.3-.1-1.2 5.8-1.2 6.8-1-.4-.1 2.7 0 3-2 0-.6 7.2-2.1 7.2a14 14 0 0 1-.8 3.6 33 33 0 0 0-1 4.4c-.1.5.1 3.8-1 3.8.2 1.7.7 7.6-1.7 7.6l.4 2.6c-1.5 0 .4 2.1 0 2.6s-1-.3-1.4.4c-.3.5 0 1.3-.1 1.8a20.72 20.72 0 0 1-1.3 3.9c-.4 1.4-.8 9.2-1.8 9.2 0 1.8-1.8 5.5-1.2 6.7-1 0-1.2 11-2.5 11v.9c-.8-.2-.4 2.2-.4 2.6-1.2 0-1.5 7.2-1.6 8.4 1 0 2-.8 2.8-.8 0 .2-.1 2-.8 1.7q.4 1-.4.8c.3 1 .8 1.3-.4 1.3.7 1 1 .9 2.1.5-.4 1.3 1.7 1.3 1.3 0q1.3-.4.8.9.9.2.4-.8a20.45 20.45 0 0 0 7.4 0c0 1.3-.1 1.2.7 2 .6.6 2.2.6 2.2 1.9.9-.2 1.1-.7 2.1-.8 0 3 3.2-1.7 3.3-1.7 2.2.1-.4 3-.4 3a23.4 23.4 0 0 0 4.3-.2c1.5-.2 1.1 0 1.6-1.1 1-2.1-.6-4.5 2.2-5.2 1.7-.4 3.9.1 5.7.2a3.58 3.58 0 0 0 2.3-.4c.1 0 .8-3 .8.4 2.5 0 8.7-1.3 10.6.6.9.9.4 1.8.7 2.9.2.6 1.1 1.5 1.1 2 1-.3 1.2-.1 1.2-1.3a9 9 0 0 0 4.5.7c1 0 3-.1 3.4 1-.4.2-.3 0-.4.5l2.1-.5c0 .9 12.5.5 13.6.5a7.5 7.5 0 0 1-.8-1.7c.7.2 1.7 1.3 2.5.7.1-.1-.5-.6-.5-.7a5.5 5.5 0 0 0 1.9.4zm-62.5-67.9l.86 2.1a11.46 11.46 0 0 1-.22 2.1c-.35-.3-.38-1.4-.27-1.8a3.32 3.32 0 0 1-.3-.3zm-4.1 18.6c.95 0 0 2 0 0zm0 6.4c.43 0 2.8-.3 2.48.4-.14.3-2.5.2-2.5-.4zm-.83-3l-.8 4.2c.9 0 0 2.8 0 0zM83.8 85c.9 0 0 3.75 0 0zm-1.64 8.43c.9 0 0 3.75 0 0zm-.84 4.22c.93 0 0 2.8 0 0zm-.85 4.22c1 0 .08 2 .08 0zm-.82 3.37c1 0 .08 3.75.08 0zm7.4 8.43c-.87 0 .08-2 .08 0zm5.35-2.1c-2.58-.14-5.2-.43-7.78-.37-.1 0-5.18.16-4.9-.3s2.33-.3 2.9-.32q.1-.63.6-.6.65-.23.5.74c1.14-.06 2.18-.28 3.3-.42.08 1.6 5.4-1 5.4 1.26zm0-64.12c-.86 0 .08-2 .08 0zm.85-5.06c-.84 0 .07-2.8.07 0zm0-1.7c-.84 0 .07-2.8.07 0zm2.47 21.9c-1 0-1.25.3-1.25-.9.67.2 1.3.1 1.3.8zm1.63-.9c-.9 0 .06-2 .06 0zm0-40.9c-.9 0 .06-2 .06 0zm1.64-8c-.6 0-.8-1.6-.5-2.1.5-.7.5 2 .5 2.1zm.4 39.6c1.6 0 0 2.1 0 0zm.4 10.1c.8.2.3-.1.8.4-.8-.3-.3 0-.8-.4zm28.3-55.2c.2 0 2-.3 1.6.4-.1.2-1.6.1-1.6-.4zm-4.1-.7c.2 0 2-.3 1.6.4-.1.2-1.6.1-1.6-.4zm0 86.4c.5 0 .7 1.6.4 2.1-.4.6-.4-2-.4-2.1zm-2.5-86.9c.1 0 2.7 0 2 .4-.5.3-2 .1-2-.5zm0 55.2c-.8-.3-.4 0-.9-.4.8.2.4-.1.8.4zm-2.5 0c.8 1.3.4 1.2.4 2.5-1.5-.9-1.7-.6-1.7-2.6zm-.9-2.6c0-.2 0-2.8.4-2.2.3.5.2 2.1-.4 2.1zm1.6 8c1 0 0 2.8 0 0zm0-58.2c.8.2.3-.1.8.4-.8-.3-.3 0-.8-.4zm.4 53.1c.5.1.4 0 .8.4-.5 0-.5.1-.8.4zm.4 10.5c.7 0 .2.5.4 1 0-.1.1 1.8.4 1-.8 2-.8-1.7-.8-2.1zm-2.5-67c.7.1 2.4 0 2.4.8-.6-.1-2.4 0-2.4-.9zm.8 3c0 1-.8.3-1.2 0zm-1.6 43c1 0 0 2 0 0zM117 4.9c0 1-.84.38-1.24 0zm0 3c0 1-.84.38-1.24 0zm0 38.4c0 .26.3 2-.42 1.68-.2-.1-.14-1.7.45-1.7zm-1.24-5.07c-.67 0-.42-.67-.42-1.27.78.42 1.27 3.47.63 3.37-1.18-.13-.1-1.7-.18-2.1zm-.42-36.7c0 1-.84.38-1.24 0zm0 3c0 1-.84.38-1.24 0zm-.42 39.23c.05 2.64-.84 0 .05 0zm-6.1-43.54l1.63-.42c0 1.35 1.86 1.12 2.88 1.27-.76.63-4.52-.16-4.52-.85zm2.05 58.62c-.37 0-1.6-.44-.84-1.27.5-.5.8 1.12.86 1.27zm-1.64.84c-.13.1-1.64.73-1.44.16a.84.84 0 0 1 1.4-.16zm-.85-59.88c0 1-.84.37-1.24 0zm-1.64 2.1c.94 0 0 2.8 0 0zm.84 57.37c0 1.6-.38.6-.84 0zm-2.06-50.6c-.82-.26-.35.05-.84-.43.86.25.4-.06.86.42zm-2.88 51.44c1 0 0 2 0 0zm23.44 50.7c-.94 0 0-2 0 0zm.84 1.7c-.9 0 0-2.8 0 0zm.42-18.5c-1.9.7-4.22.2-6.2.5a43.23 43.23 0 0 1-6.3.6 54.76 54.76 0 0 1-6.67-.4c-.73-.1-5.15.3-5.48-.1s2.1-.8 2.4-.9c1.7-.5 1.5-.6 1.8-2.4s.6-3.8 1-5.7c.1-.7.4-4.9.8-4.8 1-5.3 1.3-10.8 2.3-16.1.4-2.4.7-4.9 1.1-7.3.1-.9.7-5.3 1-5.2 0-.5-.4-2.7.4-2.5.3-1.6-.3-2.3.8-3.3 1.1 6.1 2 12.2 3.1 18.3.2 1.3 1 13.8 2.6 13.8l-.4 2.5c2.7 0 .3 11.8 2.9 11.8-.4 1.1 1.2 1.2 1.7 1.2a13.73 13.73 0 0 1 1.7.5c-.1-.1 1-1.1 1 0zm.42-89.4c-.25 0-2 .3-1.64-.4.1-.2 1.62-.1 1.62.4zm1.24 105c-2 0 0-2 0 0zm.42-101.6c-.72.4-1-.2-1.24-.4.57 0 1.2-.2 1.2.4zm7.82 50.2c-.16 1.4-.46 2.2-1.8 1.7-.3-.1-.42-.6-.67-.8-.9-.5 0-.4-2.06-.4.4-.5.9-.7.9-1.3l1.3.4a1.87 1.87 0 0 1 3.7-.4L137 60c0 .6-.3 1.3.4 1.3zm-66.8 6.4c-.63 0-.85-1.7-1-1.9a19 19 0 0 0-3.25-2.8c-1.3-1-2.4-1.5-3.7-2.4-.6-.4-4-1.9-3.9-2.5.1-.8 2.8-1.7 3.4-2a16.9 16.9 0 0 0 1.4-1.2c.4-.4.7-.8 1.2-1.1.7-.6 4.5-4.7 4.9-4.7 0-2.2 1.9-4.8 1.5-7.5-.1-.7-.8-1.3-.8-1.7-.2-1.1.1-.9.8-2.2-1.3-.6-2-.6-2-2.1l1.6.4v-8.3a4.22 4.22 0 0 0-.1-1.9c-.3-.5-1.5-.2-1.5-1.2 1.2.5 1.7.5 1.8-1 0-.7.1-.7-.3-1.1-.6-.5-.4.9-.4.9-.9 1 .5-1.8.3-1.3.1-.5-.6-.3-.8-.7 1.5 0 1-9.1.8-10.5-.6.3-.4-1-.4-1.2-.6.2-.4-1-.4-1.3q-.8.2-.3-.8H69c.37-.9-1.47-2.3-2.15-2.8-.3-.2-.7.3-1.17-.1s0-1-.8-1.5a11.6 11.6 0 0 0-3.8-.8c-.37 0-2.33 1.4-2 .2q-1 .4-.8-.4c-1.1-.2-2 1.8-3.15 1.6-.38-.1-1.18-1.3-1.85-1.7s-5.1-1.3-5.1-.1l-1-.7c.37 1.2-1.53-.4-1.18.8-.5 0-3.5-1.9-3.5 0-.6-.1-2.6 0-2.4-.8h-.4c.2 1-3 .6-2.8 0-1.5-.2-1.3.6-2.4 0l-.2.4c-.3 0-1.6-.8-1.9 0-.3 1.1 1.4 0 1.6.5.4 1.1-1.77.5-2 .4.5-2-2.82-1.7-3.72-1.7A40.25 40.25 0 0 1 21.6.7c0 1.53-5.93-.66-5.5.42q-1-.4-.8.42c-.67-.14-2-.08-2-.84-1.34.1-5.5-.46-6.66.42-.4.3-.23 1.13-.6 1.46q.1.92-.77.65a.53.53 0 0 0-.7.2v1.3a.53.53 0 0 1-.7.3h-.1c0 .18-.6.38-.9.88-.4.8.8 5.9-.8 5.9a39.22 39.22 0 0 1 0 8.5c.8 0 1 3.5 1.2 4.2h-.9c.82.4.4 3 .4 3.4.04 3.7-.7 7.3-.78 10.9-.2 8.1.5 16.1.2 24.2-.2 7.1-.7 14.7-.2 22 0 1.5 1.4 11.9 0 11.9.2.6 2.3 7.2.4 7.2.1.7 0 2.1.7 2.1l-.4 4.3c.1 0 2.3.5 1.5.9a1.53 1.53 0 0 0-.8 0c.4 1.2-.9.8-1.6.8 0 .9-.3 2.6.8 2.6-.9 1.5-.2 1 0 2.1-.9 0-.8 1.5-.8 2.1 4.3 0 8.6.2 13 .1.9 0 8.4-.6 8.2 0 .6 0 1.2-.4 1.9-.4s1.2.6 2 .4c-.1 0 1.6-1.3 1.5-1 0-.4-5.9-.5-6.3-.5a8 8 0 0 0-3.2-.1q-.1 1.2-1.2.9h-1.6v-.8h-.8c-.7-.5.4-.8-1.2-.8-.5-.5 1.6-1.2 2-1.2v1.7c.4-.3.6-.8 1.2-.8l-.4-1.7c2.5.1 1 1 2.1 2.1.8.9 2.8.5 4.1.4 1.6 0 4.2-.5 5.8-.1 1.4.4.6 1.4 1.8 1.4-.1-.2-.6-1.1-.4-1.3.5-.7 2.5.9 1.6-1.3 1 .4 1.1 1.5 1.7 1.9s2.4.2 3.2.5c2.5.8 4.3.8 6.9 1.1 0-1.8 1.2-.1 1.2-1.3l2 .4c-.4.3-.3.3-.8.4.9.9 6.3 1.3 6.3-.4a11.3 11.3 0 0 1-3 .6c-.6 0-3-.1-1.1-.7a9.43 9.43 0 0 1 2.2 0c.5 0 1.5-.2 2.2-.2 0-1.4-.1-2-1.6-2.1 2-1.9 5 .4 7.3-.2 1-.3 1.2-1 2.3-1 .4 0 2.1 1.8 2.1-.5.9.1.6 1 1.5 1.3a17.6 17.6 0 0 0 4 .3c-.2-1.1-.2-1.7.8-2.5a1 1 0 0 0 .4 1c1.3 0-.6-1.7-.5-1.7-.6-1 0-1.5-1.4-1.3a.9.9 0 0 1-.1-.9c1.7.5.9 1.7 2.7 1.7-.1-.1-.6-.6-.8-.4-.3-1 .6-.1.8-.4s.1-.3.4-.8c.7-1.4.2-3.5.2-5-.1-4.3.1-8.5.1-12.8V80s.4-8.64-1.3-12.57zm0-43.8c-.8-.2-.35.1-.8-.4.8.3.36 0 .8.4zm0 16.9c-.8-.2-.35.1-.8-.4.8.3.36 0 .8.5zm-2 5.9a4.87 4.87 0 0 0 1.16-.5q.3.8-.7.5a2.53 2.53 0 0 1-.2 1.7 10 10 0 0 1-.2-1.7zM61 3.3c.65 0 .4-.7.4-1.3a4.82 4.82 0 0 0 1.17.4 16.2 16.2 0 0 0-.8 2.1 4.82 4.82 0 0 0-1.17-.4zM58.63 7c1.86 0 0 2 0 0zm1.57 69.6c0-.8 3.9-.4 4.72-.4-1 .93-3 .47-4.14.52-2 .1-4 .3-6.1.3 1.25-1.15 4.16.4 5.52-.4zm3.15 5.9c-.78-.24-.34.07-.8-.4.8.24.36-.07.8.4zm-4.72 0c0 1-.78.38-1.18 0zM54.7 3.65c0 .54.34 1.75-.17 2.1s-1.76-1.4.17-2.1zm-2.77-2.1c1.9 0 0 1.56 0 0zm-2 0c3.28 0 0 .88 0 0zM53.9 77c0 1-4.1.67-4.72 0zm-.8 5.9c0 .92-3.47 0 0 0zM36.2 97.27c-2.62 0-6 1.08-6.37-2.1-.34-3.45.36-7 .06-10.55l-1.2.38c0-.7.9-.67 1.5-.84-1.2-3.66-.5-7.6-.3-11.34 0-1.27.2-2.56-.7-3.1s-4.4-.2-5.4-.28c1.5-1.54 4.5-1.05 6.4-1 3 .1 5.9.15 8.9.15-.3 1 2.1 2 2.7 2.1-.5 1.5 1.2.4 1.7 1s-.2 3.9-.2 4.7v13.4c0 2.1-1.4 8.6 2.4 7 1.1-.4 1-.8.9-2.3 0-1.9-.1-3.8-.1-5.7a20.62 20.62 0 0 1 0-4.2c.4-1.8.3-1.1 1.5-1.4a3.26 3.26 0 0 0-1.3 1c-.5.8 0 3.6.1 4.5 0 1.8.7 7.5-.5 8.3-.9.5-3.5 0-4.5 0h-6zM43.66 115c-.78-.25-.34.06-.8-.42.8.25.36-.06.8.42zM27.54 86.3c.56-.17 1.75-.83 2-.2s-2 1.24-2 .2zm-2-7.58c.75 0 5.44-.18 3.24.62a4.82 4.82 0 0 1-3.24-.62zm14.6-31.64c.77.25.33-.06.78.42-.78-.25-.33.06-.78-.42zM42.1 69c-.78-.25-.34.06-.8-.42.8.25.36-.06.8.42zm-.8-22.77c.8.25.35-.06.8.42-.77-.25-.35.06-.77-.42zm2.37 24c.78.25.34-.06.8.42-.8-.25-.34.06-.8-.42zm3.15 8c.66.77.42 3.2.4 4.64-.66-.76-.44-3.2-.4-4.64zM47.62 2c-.8-.25-.35.06-.8-.42.8.25.35-.06.8.42zm-.4 70.43v4.22c-.84-1-.42-3-.4-4.22-1.56 0-.42-.65.42 0zm-1.58-29.56c.8 0 .4-18.83.4-20.24.9 1.1.47 3 .4 4.33-.05 2.14 0 4.28 0 6.43v6a14.05 14.05 0 0 1 0 3v.8q-.85.4-.76-.5zm0 28.68c-.78-.25-.34.06-.8-.42.8.25.36-.06.8.42zm-.4-27.4c-.77-.26-.33.05-.78-.43.8.25.35-.06.8.42zM42.9 1.52c3.2 0 0 2.92 0 0zm-.8 8.86c-.78-.26-.34.05-.8-.43.8.25.36-.06.8.42zM39.34 3.2c1.57-.42 1.83-.42 2 1.27-1.54 0-2 .35-2-1.28zm-.8-1.7c0 1.13-3.3.67-3.92 0zM37.4 7.87v.84c-1.08-.3-1.57 0-1.57-1.2zm-13.76 38.8c1.14 0 2.43-.38 3.54 0 0-1.43 2.16-.67 2.84-2 .8-1.6-.08-5.37-.08-7.12v-9.17c0-1.5-.67-4.78.9-5.66s5.93-.3 7.65-.32 4.6-.38 5.2 1.55c.6 2.1-.5 5.9-.5 8.18a54.3 54.3 0 0 0 .5 10.82q-1.2-.4-.8.84c-2.2.6-2.9 3-4.8 3.7-1.5.6-3.9 0-5.5.1-1.1 0-9 .8-9-.9zm.8 32.47c0 1-3.72.66-4.34 0zM20.46 6.6c1.84 0 0 2 0 0zm0 3.8c-.78-.25-.34.06-.8-.42.8.25.34-.06.8.42zM19.3 49.2c1.56 0 1.32.37 0 .84zM15.74 4.07q.6.2.4-.42c.35-.12 1.14.9 1.05 1.4 0-.1-.7.94-.3.7-1.4.9-1.2-1-1.2-1.68zM15 46.24c1.32-.52 1 1.93.45 1.94s-.45-1.6-.45-1.94zm0 5.06c1.75 0 0 2.76 0 0zM7.48 88c0-.7 2.7-.57 2.75-.42.27.78-2.23.42-2.75.42zm.4-1.28c1-1 3-.83 4.32-.83 0 1.5-3.4.8-4.33.8zm4.32.85c.53-.8 2.7 0 2.8-.18-.36.5-3.06.6-2.8.1zm.4-40.9c-1 0-1.2.3-1.2-.85.6.18 1.2.18 1.2.84zM9.83 1.52L9.03 80c.4 0 2.75-.32 2.38.42-.1.3-2.3.17-2.3-.42zM6.7 4.07c.37 0 2.36.37 1 .84 0 0-1-.4-1-.8zM5.9 7c.5.16.45.06.8.42-.62 0-.8 1.27-.8-.42zm.8 16.87c-.8-.25-.35.06-.8-.42.8.25.35-.06.8.42zm0 2.1c-.8-.24-.35.07-.8-.4.8.24.35-.07.8.4zm0 5.07c-.65 0-.62-.7-.8-1.27.67.48.55.26.8 1.27zm-.8.84c.85 0 0 3.75 0 0zM7.08 80.4c0 1-.78.37-1.18 0zM5.9 86.3c1.86 0 0 2 0 0zm0 13.08c1.54 0 0 2.1 0 0zm1.18 2.53v.5c-.7-.2-.8-.2-1.18-.8zm-1.18 4.7c.85 0 0 2.8 0 0zm0 3.4c.92 0 0 2 0 0zm-.8-13.1c.86 0 0 3.8 0 0zm0 6.8c.93 0 0 2 0 0zM3.54 113c.5.03 3.9-.1 3.93.82s-3.37.78-3.93.84zm4.33 3.35a5.4 5.4 0 0 1-2 .4c0-1.2 2-1.12 2-.4zm3.93.4a12.1 12.1 0 0 1-3.54.46 5.38 5.38 0 0 0 .4-1.3c.17.2.83 1.2 1.17.9v-1.2q.6.2.4-.4a1.34 1.34 0 0 1 1 .2l-.6.2v1.3l1.18-.4zm.4-1.7c-.85-1.8-3-.4-4.34-.4.7-2.2 3.32-1.7 4.33 0-.1-.1.7.4.7.4zm1.56-.4q-.9.1-.4-.8c.25-.07.85.9 1.2 1.26-.8-.2-.34.1-.8-.4zm2.75-5.03c-.7.5-4.1.25-4.7-.4.5 0 4.8-.5 4.8.4zm.4-23.6c-.4 0-4 .93-3.9.2 0-.53 2-.14 2.4-.2-.2-.8 1.8-.8 1.6 0zm-3.5-6.34c.8 0 5.5-.2 3.3.6a4.8 4.8 0 0 1-3.2-.6zm6.3 7.6h-1.2c.4.86-1.5.4-1.1-.1s2.3-.82 2.3.1zm1.2-1.7c0 .74-2.4.4-3.1.4.8-.72 7.9-1.7 8.7-.82-1.3.55-4.3 1.07-5.5.43zm4.4.84c0 .74-1.3.7-2 .8v-.84c.5.75 1.3 0 2 0zm5.9 23.2c-.6.64-7.2.65-7.8 0zm8.3 5.5c-2.6.54-5.2-.3-7.9-.3-1.5 0-4.2.7-5.5-.56 1.6 0 13.4-.66 13.4.82zm2.8-4.66c-.7.5-4.8.23-5.5-.44.5 0 5.5-.43 5.5.4zm2 6.3c-.9-.3-.7-.13-1.2-.85.6.2 1.2.2 1.2.9zm4.4-.85c-.2.9-.2 1-1.1 1.3a2.9 2.9 0 0 0-1.2-1.8c-.4-.3-1.3.1-1.6-.5s2.7-2.1 3.2-2.3a19 19 0 0 0 .4 2.1c.2.3 1.6.4 2 .9a5.06 5.06 0 0 1-1.5.5zm18.9-3c-1.9 0 0-1.6 0 0zm0-1.3c0-1.7-5.9-.8-7.2-.8H48.8c.93-.9 4.77-.6 6.06-.8 3.13-.3 6.16.3 9.28.4a1.4 1.4 0 0 1 .2-1.2c.3-.1.18 1.1.2 1.1s1.14.2 1.26.3c1.18.5 1.42-.2 1.88 1.3zM70 76.2c-.7 0-2.6.25-3.16-.26.2.2 3.18-.8 3.18.3zm.8-.4c-.3.4 0 .1-.4.4 0-.9.24-1 .8-.4zM368.78 7.7c1.35 0 3.1.2 3.8-.42h-5.48v-.43h-.42v.42h-1.27c-.7-.68-8.5-.67-9.2 0h2.6c1.9.42 6.5.43 10.1.43zm-13.1-2.96h-.42V3.48h-.42v1.7h.84zm11.84.86h-.42v1.25c.17-.2.78-.54.42-1.26zm-6.77-2.12h-.42v-.42h-.42v.84h.9zm12.35 106.87v.84c.5-.4.06 0 .42-.5h.42c-.47-.5.06-.2-.84-.4zM364.56 6h-.42v-.4h-.42v.83h.84zm11-1.26h.44V3.48h-.84v1.7h.42zM393.4 111.6v.85l1.3-.42v-.84h-.43c-.5.4 0 .1-.87.4zm12.08 3.8c-.8.37.84.43.84.43.5-.48 0-.17.84-.42v-.4h-1.3c.03.6-.27-.1-.38.4zm-25.04-.4h.42c.6-1.1.76-.7.84-2.53l-.84-.42zm-5.18 2.94v.84a2.87 2.87 0 0 0 1.3-1.27h-.43c-.5.5 0 .2-.87.5zm2.16-3.8H377c.5.48 0 .17.84.42v-.84c-.48.36-.05-.06-.42.42z"/><path d="M408.5 112.45c-.8.27-.23-.52-.43-.86-.65-1.2-1.34 1-.42-1.7-1.45 0 .1-2.1.14-2.6 0-1.1-1-1.6.7-1.6-.4-1.2-.6-1.2-1.7-1.3.5-1 1.2-1.2 1.3-2.4 0-.4-.4-1.2-.4-1.6 0-.7.3-1.2.1-1.9-.6-3.1-4.1-2.8-6.5-3-7.6-.5-15.1-.2-22.7-.1V31.9c0-1 .7-5.66-.9-5.05a5 5 0 0 1-.2-3.17c.1-.42.7-.06.9-.6a5.73 5.73 0 0 0 .1-2.55 5.32 5.32 0 0 1-1.3.42c.6-.84 1.4-.63 1-1.74s-1.6 0-1.2-1.6c.1-.3 1.1-.6 1.3-1.1s0-2.2-.8-2.2c.2-1.1 1.2-4.8.3-5.9-.7-.7-4.8.7-5.2-.8-.1-.4 3.4.3 3.8.3-.3-.5-.9-.6-.9-1.2l1.7.4a10.12 10.12 0 0 1 .4-2.9 8.5 8.5 0 0 0-1.3 0 .84.84 0 0 0-.5-.8q-.6 0-1.1.1.1-1.1-1.3-.9c.2.8.2 4-1.7 2.2-1.7-1.7 1.6-1.5 1.3-2.2-.9-.4-1.8.4-2.7.4-1.1 0-2.1-.4-3.2-.4 0 .1.2 1.7.4 1.3-.5 1.1-1-.3-1.7-.4-1-.1-2 .7-2.9.9 0-1.4-1.7-.4-1.7-1 0-.4 2.3-.2 2.6-.2-1.3-1.1-3.9-.4-5.5-.3s-4.5-.6-5.8.3c-1 .7-.6 4.2-.6 5.7 0 .6.5 3.8-.4 3.8l.4 3.4c-1.7 0-.6 4.8-.5 6.1.1 2.8.1 5.6.2 8.4.1 6.8 0 13.7 0 20.5s-.2 13.8 0 20.7c0 3 .2 5.9.1 8.9-.1 2.8.3 6.2-.2 8.9-.8-.2-.8 1.9 0 1.7l-.4 3c.8 0-.1 3.5-.1 4.2 0 2.8.1 5.6.2 8.4s.3 5.4.1 8.1c0 .7-.5 2.1-.2 2.8s1.6 1.3 1.6 1.9c2.3-.5 4.7 0 7 .2 2.6.2 3.3-.2 5.4-1.4 1 2.7 9.1-.1 9.1 1.7l4.4-.5c-.5-1.1.5-.8 1.3-.8-.3-.7 1.4-1 1.7-.4v-2a13.22 13.22 0 0 0 3.4.9c0-1.3 0-1.3 1.3-1.7 0 .7.4.8.4 1.7.8 0 .2.7.5.8 0 0 .6-1.1.7-1.2.4-.3.2-.3.9-.4s5.6-.4 5.6-.3h-.5c.2-1.2.8-1.8.8 0a3.44 3.44 0 0 0 .9-1.2.72.72 0 0 1 .1 1c0 .1 1.2 1.6 1.2.3.9.1 3.7.9 4.3 0 .6 1.5.3 1.4 1.6 1.5-.5 0 1.3-.5 1-.4.2 0 1 .1 1.3.1a2.5 2.5 0 0 0 2.4-1.6c.7-1.3.5-.9.2-2.6zm-33.37-109c1.33-.5 1 1.43.42 1.27q.2.63-.42.42zM363.7 5.6c.13 0 .85.48.85.4 0 .92-.84.6-.84-.4zm-3.8-2.54c.13 0 .85.5.85.42 0 .92-.85.6-.85-.42zm5.5 4.22c1.86 0 1-1.38 1.9-1.7S367.1 7 367.12 7c-.15.42 5.27.25 5.46.25-1.36 1.18-5.07.42-6.7.42-3.26 0-6.52-.42-9.8-.42.74-.67 8.6-.68 9.3 0zm-10.57-3.8c.45 0 .67 1.62.84 1.27-.75 1.53-.84-.48-.84-1.27zm18.7 107.3c-.32.4 0 .1-.42.4 0-.92.3-1 .9-.4zm1.72 8a1.2 1.2 0 0 1 1.1-1.28h.2a3.25 3.25 0 0 1-1.3 1.27zm2.6-4.23c-.85-.25-.38.06-.85-.42.5 0 .5-.16.84-.42zm3 .42h-.43l.42-3c1.5.73.62 1.82 0 3zm13.8-3l-1.28.42c0-1 1.3-2 1.3-.5zm12.53 3.37c-.12 0-2.15.7-1.94.16s1.95-1 1.95-.16z"/></g></g></svg>