<svg xmlns="http://www.w3.org/2000/svg" viewBox="0 0 245 240">
  <path fill="#fff" d="M104.4 104c-5.7 0-10.2 5-10.2 11s4.6 11 10.2 11c5.7 0 10.2-5 10.2-11s-4.5-11-10.2-11zm36.5 0c-6 0-10.7 5-10.7 11s4.6 11 10.2 11 10-5 10-11-4.4-11-10-11z" class="st0"/>
  <path fill="#fff" d="M189.5 20h-134C44.2 20 35 29.2 35 40.6v135.2c0 11.4 9.2 20.6 20.5 20.6H169l-5.4-18.5 12.8 11.4 12 11.2 21.6 19v-179C210 29 200.8 20 189.5 20zM151 150.6l-6.7-8c13-3.8 18-12 18-12-4 2.7-8 4.6-11.4 6-5 2-10 3.4-15 4.2-9.6 1.8-18.4 1.3-26 0-5.6-1.2-10.5-2.8-14.6-4.4-2.3-1-4.8-2-7.3-3.4l-1-.5-.2-.3-2.8-1.7s4.8 8 17.5 11.8l-6.8 8.3c-22-.7-30.6-15.2-30.6-15.2.7-32.2 15-58.4 15-58.4 14.5-10.7 28.2-10.4 28.2-10.4l1 1.2c-18 5.2-26.3 13-26.3 13l5.4-2.8c10.7-4.7 19.2-6 22.7-6.3l1.8-.2c6-.8 13-1 20.2-.2 9.5 1 19.7 4 30 9.6 0 0-7.8-8-24.8-13l1.4-1.8s13.5-.3 28 10.5c0 0 14.3 26 14.3 58.3 0 0-8.5 14.6-30.6 15.3z" class="st0"/>
</svg>
