<svg xmlns="http://www.w3.org/2000/svg" width="57" height="50" viewBox="0 0 57 50"><style>.a{fill:#FF460F;}.b{fill:#FF281E;}.c{fill:#FF6400;}.d{fill:#D20823;}.e{fill:#E91821;}</style><g fill="none"><g transform="translate(-50 -50)translate(50 50)"><g transform="translate(14.763 7.924743)"><polygon points="23.46 0.01 21.2 3.98 24.25 9.33 27.62 7.31" class="a"/><polygon points="4.01 0.01 6.28 3.98 3.23 9.33 0.04 6.98" class="a"/><rect x="11.76" y="3.98" width="3.92" height="30.14" class="b"/><polygon points="4.01 0.01 6.28 3.98 21.2 3.98 23.46 0.01" class="c"/></g><g transform="translate(9.006 21.037628)"><polygon points="31.48 17.04 29.22 21.01 25.35 21.01 25.35 17.04" class="d"/><polygon points="13.6 17.04 13.6 21.01 9.77 21.01 7.51 17.04" class="d"/><polygon points="36.7 0.03 38.94 3.96 33.7 13.16 31.48 9.19" class="e"/><polygon points="2.29 0.03 0.05 3.96 5.29 13.16 7.51 9.19" class="e"/><polygon points="25.35 9.19 25.35 13.16 33.7 13.16 31.48 9.19" class="b"/><polygon points="13.6 9.19 13.6 13.16 5.29 13.16 7.51 9.19" class="b"/><polygon points="31.48 1.25 25.35 1.25 25.35 5.22 29.22 5.22" class="a"/><polygon points="7.51 1.25 9.77 5.22 13.6 5.22 13.6 1.25" class="a"/></g><polygon points="14.25 0 16.51 3.97 4.53 24.99 0 24.99" class="a"/><polygon points="4.53 24.99 0 24.99 14.25 49.98 16.51 46.01" class="e"/><polygon points="40.49 46.01 42.75 49.98 14.25 49.98 16.51 46.01" class="d"/><polygon points="40.49 46.01 42.75 49.98 57 24.99 52.47 24.99" class="e"/><polygon points="57 24.99 52.47 24.99 40.49 3.97 42.75 0" class="a"/><polygon points="16.51 3.97 14.25 0 42.75 0 40.49 3.97" class="c"/></g></g></svg>
