<svg xmlns="http://www.w3.org/2000/svg" width="141" height="33" viewBox="0 0 141 33">
    <path fill="#FFF" fill-rule="evenodd" d="M48.33 4.346l.344-1.962A2.87 2.87 0 0 1 51.494 0h2.49c1.78 0 3.13 1.618 2.82 3.385l-.343 1.962a2.87 2.87 0 0 1-2.82 2.384h-2.49c-1.78 0-3.13-1.62-2.82-3.386zm-4.425 25.268l2.54-14.503a1.435 1.435 0 0 1 1.41-1.192h5.397c.89 0 1.565.81 1.41 1.693l-2.627 15.005A2.87 2.87 0 0 1 49.215 33h-2.49c-1.78 0-3.13-1.62-2.82-3.386zM31.99 30.797l-1.7-7.03a2.867 2.867 0 0 0-2.782-2.202H12.16a2.87 2.87 0 0 0-2.821 2.384l-1.165 6.667A2.87 2.87 0 0 1 5.352 33H2.865c-1.781 0-3.13-1.62-2.82-3.386l2.54-14.503a1.435 1.435 0 0 1 1.41-1.191H32.26c3.738 0 3.91-6.187.076-6.187L7.29 7.732c-1.78 0-3.13-1.62-2.82-3.386l.343-1.962A2.87 2.87 0 0 1 7.634 0H38.3c2.174 0 3.798.626 4.827 1.86 1.062 1.275 1.397 3.093.993 5.405l-1.275 7.408c-.42 2.444-1.51 4.32-3.15 5.489-.94.67-1.346 1.873-1.07 2.999l1.532 6.264c.445 1.819-.921 3.575-2.78 3.575h-2.604a2.87 2.87 0 0 1-2.783-2.203zm23.738-1.183l2.54-14.503a1.435 1.435 0 0 1 1.41-1.192H89.99c1.781 0 3.13 1.62 2.82 3.387l-.33 1.877a2.87 2.87 0 0 1-2.82 2.382H67.835a2.87 2.87 0 0 0-2.822 2.386l-1.157 6.661A2.87 2.87 0 0 1 61.034 33h-2.486c-1.78 0-3.13-1.62-2.82-3.386zM138.135 0c1.782 0 3.13 1.62 2.82 3.387l-.344 1.963a2.87 2.87 0 0 1-2.82 2.381H61.267c-.89 0-1.566-.81-1.41-1.692l.64-3.655A2.87 2.87 0 0 1 63.316 0h74.818zm-25.693 29.614l2.538-14.503a1.435 1.435 0 0 1 1.411-1.192h5.397c.89 0 1.565.81 1.41 1.693l-2.626 15.004a2.87 2.87 0 0 1-2.82 2.384h-2.49c-1.78 0-3.13-1.62-2.82-3.386z"/>
</svg>
