<svg xmlns="http://www.w3.org/2000/svg" width="160" height="160" style="background:#22202e" viewBox="0 0 160 160">
    <path fill="#821E96" fill-rule="nonzero" d="M71.935 28.505c2.06 12.204 2.68 37.556 2.674 37.965 0 33.272-17.188 59.813-46.597 71.878a5.127 5.127 0 0 1-6.544-2.492l-9.987-20.976a5.123 5.123 0 0 1 2.33-6.84c9.04-4.471 14.589-8.852 17.855-15.25-8.346-.226-16.74-.845-25.05-2.099a5.112 5.112 0 0 1-4.283-4.208c-3.11-18.34-3.11-39.639 0-57.978a5.112 5.112 0 0 1 4.283-4.209c20.019-3.03 41.017-3.03 61.035 0a5.112 5.112 0 0 1 4.284 4.209zm85.616 0c2.067 12.204 2.46 37.556 2.449 37.965 0 33.272-16.967 59.275-46.371 71.34a5.113 5.113 0 0 1-6.538-2.492l-9.988-20.438a5.119 5.119 0 0 1 2.33-6.84c9.04-4.471 14.589-8.852 17.855-15.25-8.351-.226-16.74-.84-25.055-2.099a5.124 5.124 0 0 1-4.284-4.208 173.586 173.586 0 0 1 0-57.978 5.13 5.13 0 0 1 4.284-4.209 203.918 203.918 0 0 1 61.035 0 5.124 5.124 0 0 1 4.283 4.209z"/>
</svg>
