<svg xmlns="http://www.w3.org/2000/svg" width="160" height="160" style="background:#22202e" viewBox="0 0 160 160">
  <path fill="#821E96" d="M72 28.5c2 12.2 2.6 37.6 2.6 38 0 33.2-17.2 59.8-46.6 71.8a5 5 0 0 1-6.5-2.4l-10-21a5 5 0 0 1 2.3-7c9-4.7 14.6-9 18-15.5-8.5-.2-17-1-25.2-2a5 5 0 0 1-4.3-4.3c-3-18.4-3-39.7 0-58A5 5 0 0 1 6.6 24c20-3 41-3 61 0a5 5 0 0 1 4.3 4.3zm85.6 0c2 12.2 2.4 37.6 2.4 38 0 33.2-17 59.2-46.4 71.3a5 5 0 0 1-6.5-2.5L97 115a5 5 0 0 1 2.4-7c9-4.4 14.6-8.8 18-15.2-8.5-.2-17-.8-25.2-2a5 5 0 0 1-4.3-4.3 173.6 173.6 0 0 1 0-58 5 5 0 0 1 4-4.2 204 204 0 0 1 61 0 5 5 0 0 1 4.3 4.2z"/>
</svg>
